<svg width="0" height="0" class="hidden">
  <symbol width="105" height="27" viewBox="0 0 105 27" xmlns="http://www.w3.org/2000/svg" id="memuaro-logo">
    <path d="M31.9616 11.2713C32.8297 11.2713 33.572 11.4714 34.1884 11.8716C34.8175 12.2718 35.2956 12.8388 35.6227 13.5725C35.9623 14.2929 36.1322 15.1401 36.1322 16.114V17.1745H29.2064C29.2316 18.3885 29.5209 19.3157 30.0745 19.9561C30.6406 20.5831 31.4269 20.8966 32.4334 20.8966C33.075 20.8966 33.6412 20.8366 34.1318 20.7165C34.6351 20.5831 35.1509 20.3963 35.6793 20.1562V21.6971C35.1635 21.9372 34.6539 22.1106 34.1507 22.2173C33.6475 22.3374 33.0499 22.3974 32.3579 22.3974C31.4018 22.3974 30.5526 22.1907 29.8103 21.7771C29.0806 21.3635 28.5082 20.7499 28.093 19.9361C27.6904 19.1089 27.4891 18.1017 27.4891 16.9144C27.4891 15.7404 27.6715 14.7332 28.0364 13.8927C28.4138 13.0522 28.9359 12.4052 29.6027 11.9516C30.2821 11.4981 31.0684 11.2713 31.9616 11.2713ZM31.9427 12.7121C31.1501 12.7121 30.5211 12.9855 30.0556 13.5325C29.6027 14.0661 29.3322 14.8132 29.2441 15.7738H34.396C34.396 15.1601 34.308 14.6265 34.1318 14.1729C33.9557 13.7193 33.6852 13.3658 33.3204 13.1123C32.9681 12.8455 32.5089 12.7121 31.9427 12.7121Z" fill="#612500"/>
    <path d="M49.5583 11.4714V22.1973H48.0674V15.3535C48.0674 15.0734 48.0737 14.7799 48.0863 14.473C48.1115 14.1662 48.1366 13.866 48.1618 13.5725H48.1052L44.8027 22.1973H43.4062L40.1981 13.5725H40.1415C40.1666 13.866 40.1792 14.1662 40.1792 14.473C40.1918 14.7799 40.1981 15.0934 40.1981 15.4136V22.1973H38.7072V11.4714H40.9152L44.1045 20.0962L47.3503 11.4714H49.5583Z" fill="#612500"/>
    <path d="M51.2019 11.4714H52.9758L55.1648 17.5748C55.2907 17.935 55.4039 18.2818 55.5045 18.6153C55.6178 18.9489 55.7184 19.2757 55.8065 19.5959C55.8945 19.9027 55.9637 20.2029 56.0141 20.4964H56.0895C56.165 20.1629 56.2845 19.7293 56.4481 19.1957C56.6117 18.6487 56.7815 18.1017 56.9576 17.5548L59.0146 11.4714H60.8074L56.4481 23.6782C56.2091 24.3452 55.926 24.9255 55.5989 25.4191C55.2844 25.9261 54.8944 26.3129 54.4289 26.5798C53.9759 26.8599 53.4224 27 52.7682 27C52.4662 27 52.202 26.98 51.9756 26.94C51.7491 26.9133 51.5541 26.8799 51.3906 26.8399V25.4391C51.529 25.4658 51.6925 25.4925 51.8812 25.5192C52.0825 25.5459 52.2901 25.5592 52.504 25.5592C52.894 25.5592 53.2274 25.4792 53.5042 25.3191C53.7935 25.1723 54.0389 24.9522 54.2401 24.6587C54.4414 24.3785 54.6113 24.045 54.7497 23.6581L55.2781 22.2374L51.2019 11.4714Z" fill="#612500"/>
    <path d="M66.2379 11.2913C67.4708 11.2913 68.383 11.5781 68.9743 12.1517C69.5656 12.7254 69.8612 13.6392 69.8612 14.8933V22.1973H68.6535L68.3326 20.6765H68.2572C67.9678 21.0634 67.6658 21.3902 67.3513 21.657C67.0494 21.9105 66.6971 22.0973 66.2945 22.2173C65.9045 22.3374 65.4264 22.3974 64.8603 22.3974C64.2564 22.3974 63.7091 22.284 63.2185 22.0573C62.7404 21.8305 62.363 21.4836 62.0862 21.0167C61.8094 20.5364 61.671 19.9361 61.671 19.2157C61.671 18.1484 62.0673 17.328 62.8599 16.7543C63.6525 16.1673 64.8729 15.8471 66.521 15.7938L68.2383 15.7337V15.0934C68.2383 14.1996 68.0559 13.5792 67.691 13.2323C67.3262 12.8855 66.8103 12.7121 66.1436 12.7121C65.6152 12.7121 65.1119 12.7988 64.6338 12.9722C64.1558 13.1323 63.7091 13.3191 63.294 13.5325L62.7845 12.2118C63.2248 11.9583 63.7469 11.7449 64.3508 11.5714C64.9547 11.3847 65.5837 11.2913 66.2379 11.2913ZM66.7286 17.0145C65.4705 17.0678 64.5961 17.2813 64.1054 17.6548C63.6274 18.0283 63.3883 18.5553 63.3883 19.2357C63.3883 19.836 63.5582 20.2763 63.8979 20.5564C64.2501 20.8366 64.6968 20.9767 65.2377 20.9767C66.0932 20.9767 66.8041 20.7298 67.3702 20.2362C67.9363 19.7293 68.2194 18.9555 68.2194 17.915V16.9544L66.7286 17.0145Z" fill="#612500"/>
    <path d="M77.7975 11.2713C79.043 11.2713 80.0432 11.7315 80.7981 12.652C81.5655 13.5725 81.9492 14.96 81.9492 16.8143C81.9492 18.0283 81.7731 19.0556 81.4208 19.8961C81.0811 20.7232 80.5968 21.3502 79.9677 21.7771C79.3513 22.1907 78.6216 22.3974 77.7786 22.3974C77.2628 22.3974 76.8036 22.3241 76.401 22.1773C75.9984 22.0306 75.6525 21.8438 75.3631 21.617C75.0863 21.3769 74.8473 21.1167 74.646 20.8366H74.5328C74.5579 21.0634 74.5831 21.3502 74.6083 21.6971C74.6334 22.0439 74.646 22.3441 74.646 22.5976V27H72.9853V11.4714H74.3441L74.5705 12.9322H74.646C74.8473 12.6253 75.0863 12.3452 75.3631 12.0917C75.6525 11.8382 75.9921 11.6381 76.3822 11.4914C76.7847 11.3446 77.2565 11.2713 77.7975 11.2713ZM77.4956 12.7521C76.8162 12.7521 76.2689 12.8922 75.8538 13.1723C75.4386 13.4391 75.1366 13.846 74.9479 14.393C74.7592 14.94 74.6586 15.6337 74.646 16.4741V16.8143C74.646 17.6948 74.7341 18.4419 74.9102 19.0556C75.0863 19.6693 75.382 20.1362 75.7971 20.4564C76.2249 20.7765 76.8036 20.9366 77.5333 20.9366C78.1498 20.9366 78.653 20.7565 79.043 20.3963C79.4456 20.0361 79.7413 19.5492 79.93 18.9355C80.1313 18.3085 80.2319 17.5948 80.2319 16.7943C80.2319 15.567 80.0055 14.5864 79.5525 13.8527C79.1122 13.119 78.4266 12.7521 77.4956 12.7521Z" fill="#612500"/>
    <path d="M89.4078 11.2713C90.6533 11.2713 91.6535 11.7315 92.4084 12.652C93.1758 13.5725 93.5595 14.96 93.5595 16.8143C93.5595 18.0283 93.3834 19.0556 93.0311 19.8961C92.6914 20.7232 92.2071 21.3502 91.578 21.7771C90.9616 22.1907 90.2319 22.3974 89.389 22.3974C88.8731 22.3974 88.4139 22.3241 88.0113 22.1773C87.6087 22.0306 87.2628 21.8438 86.9734 21.617C86.6966 21.3769 86.4576 21.1167 86.2563 20.8366H86.1431C86.1682 21.0634 86.1934 21.3502 86.2186 21.6971C86.2437 22.0439 86.2563 22.3441 86.2563 22.5976V27H84.5956V11.4714H85.9544L86.1808 12.9322H86.2563C86.4576 12.6253 86.6966 12.3452 86.9734 12.0917C87.2628 11.8382 87.6025 11.6381 87.9925 11.4914C88.3951 11.3446 88.8669 11.2713 89.4078 11.2713ZM89.1059 12.7521C88.4265 12.7521 87.8793 12.8922 87.4641 13.1723C87.0489 13.4391 86.747 13.846 86.5582 14.393C86.3695 14.94 86.2689 15.6337 86.2563 16.4741V16.8143C86.2563 17.6948 86.3444 18.4419 86.5205 19.0556C86.6966 19.6693 86.9923 20.1362 87.4075 20.4564C87.8352 20.7765 88.4139 20.9366 89.1436 20.9366C89.7601 20.9366 90.2633 20.7565 90.6533 20.3963C91.0559 20.0361 91.3516 19.5492 91.5403 18.9355C91.7416 18.3085 91.8422 17.5948 91.8422 16.7943C91.8422 15.567 91.6158 14.5864 91.1629 13.8527C90.7225 13.119 90.0369 12.7521 89.1059 12.7521Z" fill="#612500"/>
    <path d="M105 16.8143C105 17.7082 104.887 18.5019 104.66 19.1957C104.446 19.876 104.132 20.4564 103.717 20.9366C103.314 21.4169 102.817 21.7838 102.226 22.0372C101.647 22.2774 100.999 22.3974 100.282 22.3974C99.6154 22.3974 98.9989 22.2774 98.4328 22.0372C97.8666 21.7838 97.376 21.4169 96.9608 20.9366C96.5456 20.4564 96.2185 19.876 95.9795 19.1957C95.753 18.5019 95.6398 17.7082 95.6398 16.8143C95.6398 15.627 95.8285 14.6265 96.2059 13.8127C96.5834 12.9855 97.1243 12.3585 97.8289 11.9316C98.5334 11.4914 99.37 11.2713 100.339 11.2713C101.257 11.2713 102.062 11.4914 102.754 11.9316C103.459 12.3585 104.006 12.9855 104.396 13.8127C104.799 14.6265 105 15.627 105 16.8143ZM97.3571 16.8143C97.3571 17.6548 97.4577 18.3885 97.659 19.0156C97.8729 19.6292 98.2 20.1028 98.6403 20.4364C99.0807 20.7699 99.6405 20.9366 100.32 20.9366C100.999 20.9366 101.559 20.7699 101.999 20.4364C102.44 20.1028 102.761 19.6292 102.962 19.0156C103.176 18.3885 103.283 17.6548 103.283 16.8143C103.283 15.9605 103.176 15.2335 102.962 14.6331C102.748 14.0328 102.421 13.5725 101.981 13.2524C101.553 12.9188 100.993 12.7521 100.301 12.7521C99.2694 12.7521 98.5208 13.1123 98.0553 13.8327C97.5898 14.5531 97.3571 15.547 97.3571 16.8143Z" fill="#612500"/>
    <path d="M23.9213 2.57717L25.9963 0.463028V0H18.8101L13.6887 13.5822L7.8632 0H0.328338V0.463028L2.75195 3.57142C2.98889 3.80114 3.11075 4.13854 3.08029 4.47594V16.6906C3.15476 17.132 3.02274 17.5807 2.73164 17.9002L0 21.4285V21.8844H7.73795V21.4213L5.0097 17.9038C4.86352 17.7464 4.75357 17.5554 4.6884 17.3456C4.62323 17.1358 4.6046 16.9128 4.63397 16.6941V6.12705L11.4275 21.8916H12.2162L18.0586 6.12705V18.6862C18.0586 19.0165 18.0586 19.0847 17.8555 19.3036L15.7535 21.468V21.931H25.9489V21.468L23.9213 19.3539C23.7453 19.2103 23.6539 18.9698 23.6911 18.7365V3.19454C23.6736 3.07919 23.6857 2.96097 23.7262 2.85232C23.7668 2.74367 23.8341 2.64862 23.9213 2.57717Z" fill="#612500"/>
  </symbol>
</svg>
