<svg width="0" height="0" class="hidden">
  <symbol width="120" height="31" viewBox="0 0 161 31" xmlns="http://www.w3.org/2000/svg" id="rememory-logo">
    <path d="M0 22.5885V0.188477H8.096C10.8907 0.188477 13.088 0.743144 14.688 1.85248C16.3093 2.96181 17.12 4.50848 17.12 6.49248C17.12 7.87914 16.7147 9.06314 15.904 10.0445C15.0933 11.0258 13.9413 11.7511 12.448 12.2205L14.976 16.9245C15.552 17.9911 16.1387 18.9725 16.736 19.8685C17.3547 20.7645 17.824 21.3938 18.144 21.7565L18.592 22.3325L18.368 22.5885H12.96L7.712 12.7965H4.96V22.5885H0ZM7.328 2.20448H4.96V10.8125H7.328C8.77867 10.8125 9.90933 10.4391 10.72 9.69248C11.5307 8.94581 11.936 7.87914 11.936 6.49248C11.936 5.10581 11.5307 4.04981 10.72 3.32448C9.90933 2.57781 8.77867 2.20448 7.328 2.20448Z" fill="#612500"/>
    <path d="M33.9287 19.0365L34.6647 19.7725C34.6221 19.8578 34.5474 19.9751 34.4408 20.1245C34.3341 20.2525 34.0888 20.4978 33.7048 20.8605C33.3421 21.2231 32.9261 21.5431 32.4567 21.8205C31.9874 22.0978 31.3474 22.3538 30.5368 22.5885C29.7261 22.8018 28.8621 22.9085 27.9447 22.9085C25.4274 22.9085 23.4114 22.1831 21.8967 20.7325C20.4034 19.2605 19.6567 17.3191 19.6567 14.9085C19.6567 12.4765 20.4248 10.5565 21.9608 9.14848C23.4968 7.71914 25.6514 7.00448 28.4247 7.00448C32.6274 7.00448 34.7288 8.66848 34.7288 11.9965C34.7288 12.4018 34.6968 12.8071 34.6328 13.2125C34.5901 13.5965 34.5368 13.8845 34.4728 14.0765L34.3768 14.3965L33.9928 14.7805H24.9368C25.0008 16.7645 25.4167 18.2045 26.1847 19.1005C26.9741 19.9965 28.1154 20.4445 29.6087 20.4445C30.4194 20.4445 31.1768 20.3271 31.8808 20.0925C32.6061 19.8578 33.1287 19.6231 33.4487 19.3885L33.9287 19.0365ZM28.2968 8.54048C27.3581 8.54048 26.5901 8.93514 25.9928 9.72448C25.4168 10.5138 25.0754 11.6765 24.9688 13.2125L30.3127 12.8925C30.4194 12.4018 30.4727 11.8791 30.4727 11.3245C30.4727 9.46848 29.7474 8.54048 28.2968 8.54048Z" fill="#612500"/>
    <path d="M59.3425 22.5885L57.1985 4.31648L57.0705 4.18848L51.4065 21.9485H48.1105L47.4385 21.2765L41.6145 4.22048L41.4545 4.34848L39.7265 22.5885H37.3265L39.0225 5.85248C39.1078 4.76448 39.1398 3.83648 39.1185 3.06848C39.1185 2.27914 39.0972 1.66048 39.0545 1.21248L38.9585 0.572477L39.3425 0.188477H45.3905L50.8305 15.9965L55.8865 0.188477H61.8065L64.4625 22.5885H59.3425Z" fill="#612500"/>
    <path d="M81.085 19.0365L81.821 19.7725C81.7783 19.8578 81.7037 19.9751 81.597 20.1245C81.4903 20.2525 81.245 20.4978 80.861 20.8605C80.4983 21.2231 80.0823 21.5431 79.613 21.8205C79.1437 22.0978 78.5037 22.3538 77.693 22.5885C76.8823 22.8018 76.0183 22.9085 75.101 22.9085C72.5837 22.9085 70.5677 22.1831 69.053 20.7325C67.5597 19.2605 66.813 17.3191 66.813 14.9085C66.813 12.4765 67.581 10.5565 69.117 9.14848C70.653 7.71914 72.8077 7.00448 75.581 7.00448C79.7837 7.00448 81.885 8.66848 81.885 11.9965C81.885 12.4018 81.853 12.8071 81.789 13.2125C81.7463 13.5965 81.693 13.8845 81.629 14.0765L81.533 14.3965L81.149 14.7805H72.093C72.157 16.7645 72.573 18.2045 73.341 19.1005C74.1303 19.9965 75.2717 20.4445 76.765 20.4445C77.5757 20.4445 78.333 20.3271 79.037 20.0925C79.7623 19.8578 80.285 19.6231 80.605 19.3885L81.085 19.0365ZM75.453 8.54048C74.5143 8.54048 73.7463 8.93514 73.149 9.72448C72.573 10.5138 72.2317 11.6765 72.125 13.2125L77.469 12.8925C77.5757 12.4018 77.629 11.8791 77.629 11.3245C77.629 9.46848 76.9037 8.54048 75.453 8.54048Z" fill="#612500"/>
    <path d="M94.8395 22.5885V11.8365C94.8395 10.3645 94.1248 9.62848 92.6955 9.62848C92.2688 9.62848 91.8422 9.69248 91.4155 9.82048C91.0102 9.94848 90.7115 10.0658 90.5195 10.1725L90.1995 10.3645V22.5885H85.4635V12.9885C85.4635 11.9218 85.3888 10.9511 85.2395 10.0765C85.0902 9.18048 84.9515 8.56181 84.8235 8.22048L84.5995 7.70848L85.0155 7.32448C85.8688 7.32448 86.6902 7.29248 87.4795 7.22848C88.2902 7.16448 88.8768 7.10048 89.2395 7.03648L89.8155 6.94048L90.1995 7.32448L90.0715 8.76448L90.1995 8.89248C90.3488 8.74314 90.5622 8.57248 90.8395 8.38048C91.1168 8.16714 91.6928 7.88981 92.5675 7.54848C93.4635 7.18581 94.3808 7.00448 95.3195 7.00448C97.1542 7.00448 98.4022 7.67648 99.0635 9.02048C99.3195 8.80714 99.6502 8.57248 100.056 8.31648C100.461 8.06048 101.101 7.78314 101.976 7.48448C102.872 7.16448 103.757 7.00448 104.632 7.00448C106.082 7.00448 107.16 7.40981 107.864 8.22048C108.568 9.00981 108.92 10.0658 108.92 11.3885V22.5885H104.184V11.8365C104.184 10.3645 103.49 9.62848 102.104 9.62848C101.229 9.62848 100.344 9.85248 99.4475 10.3005C99.5115 10.6631 99.5435 11.0258 99.5435 11.3885V22.5885H94.8395Z" fill="#612500"/>
    <path d="M114.523 20.7005C112.987 19.2285 112.219 17.3085 112.219 14.9405C112.219 12.5725 112.987 10.6631 114.523 9.21248C116.059 7.74048 118.065 7.00448 120.539 7.00448C123.014 7.00448 125.009 7.74048 126.523 9.21248C128.059 10.6631 128.827 12.5725 128.827 14.9405C128.827 17.3085 128.059 19.2285 126.523 20.7005C124.987 22.1725 122.993 22.9085 120.539 22.9085C118.065 22.9085 116.059 22.1725 114.523 20.7005ZM117.499 14.9405C117.499 17.0098 117.777 18.5991 118.331 19.7085C118.886 20.8178 119.622 21.3725 120.539 21.3725C121.457 21.3725 122.182 20.8178 122.715 19.7085C123.27 18.5991 123.547 17.0098 123.547 14.9405C123.547 12.8925 123.27 11.3138 122.715 10.2045C122.182 9.09514 121.457 8.54048 120.539 8.54048C119.622 8.54048 118.886 9.09514 118.331 10.2045C117.777 11.3138 117.499 12.8925 117.499 14.9405Z" fill="#612500"/>
    <path d="M142.453 7.00448C142.73 8.11381 142.869 9.45781 142.869 11.0365L142.453 11.4205C142.154 11.1858 141.642 11.0685 140.917 11.0685C140.234 11.0685 139.562 11.2178 138.901 11.5165C138.239 11.8151 137.749 12.1138 137.429 12.4125L136.981 12.8605V22.5885H132.245V12.9885C132.245 11.9218 132.17 10.9511 132.021 10.0765C131.871 9.18048 131.733 8.56181 131.605 8.22048L131.381 7.70848L131.797 7.32448C132.65 7.32448 133.471 7.29248 134.261 7.22848C135.071 7.16448 135.658 7.10048 136.021 7.03648L136.597 6.94048L136.981 7.32448L136.853 10.5245L136.981 10.6525C137.045 10.5458 137.13 10.4178 137.237 10.2685C137.343 10.0978 137.578 9.80981 137.941 9.40448C138.325 8.97781 138.709 8.60448 139.093 8.28448C139.498 7.96448 139.999 7.67648 140.597 7.42048C141.215 7.14314 141.834 7.00448 142.453 7.00448Z" fill="#612500"/>
    <path d="M160.431 7.32448L152.911 24.9245C152.485 25.9271 152.09 26.8978 151.727 27.8365C151.365 28.7751 151.119 29.4578 150.991 29.8845L150.767 30.5565L150.479 30.8125C149.797 30.8125 149.125 30.7058 148.463 30.4925C147.802 30.3005 147.311 30.1085 146.991 29.9165L146.511 29.6285V29.2445C146.703 29.0951 146.959 28.8711 147.279 28.5725C147.599 28.2738 148.133 27.6338 148.879 26.6525C149.647 25.6711 150.277 24.6578 150.767 23.6125L151.215 22.6205L146.927 12.9885C146.458 11.9431 145.978 10.9725 145.487 10.0765C144.997 9.18048 144.613 8.54048 144.335 8.15648L143.951 7.58048L144.207 7.32448C145.103 7.32448 145.967 7.30314 146.799 7.26048C147.631 7.21781 148.239 7.17514 148.623 7.13248L149.199 7.06848L153.487 17.5645L155.567 12.9885C156.058 11.8791 156.453 10.8765 156.751 9.98048C157.05 9.08448 157.221 8.46581 157.263 8.12448L157.327 7.58048L157.583 7.32448C157.967 7.32448 158.373 7.30314 158.799 7.26048C159.226 7.21781 159.567 7.17514 159.823 7.13248L160.175 7.06848L160.431 7.32448Z" fill="#612500"/>
  </symbol>
</svg>
