<svg width="577" height="471" viewBox="0 0 577 471" fill="none" xmlns="http://www.w3.org/2000/svg">
<path fill-rule="evenodd" clip-rule="evenodd" d="M17.2656 429.276C-50.5715 354.079 105.19 291.467 78.8273 185.552C52.4647 79.6372 -5.35559 -40.0355 240.047 12.9841C359.785 38.8539 438.089 35.4451 503.139 77.4289C573.169 122.627 452.087 210.759 547.383 338.3C653.471 480.285 85.1028 504.473 17.2656 429.276Z" fill="#FAAD14"/>
<path d="M128.092 392.158C126.159 386.068 101.562 395.568 92.8962 396.827C90.5809 397.164 101.217 130.164 109.882 68.3077C110.464 64.1533 113.43 58.6171 117.188 60.4937C122.505 63.1485 128.737 62.9803 134.679 62.7679C242.132 58.9265 349.762 60.0131 457.115 66.0229C460.744 66.226 464.676 66.5554 467.38 68.98C469.959 71.2932 470.77 74.9386 471.42 78.3385C483.81 143.126 485.437 345.964 480.625 411.747C476.974 411.718 452.388 407.209 452.388 407.209C452.388 407.209 134.679 382.341 128.092 392.158Z" fill="white"/>
<path fill-rule="evenodd" clip-rule="evenodd" d="M273.147 272.512C268.666 321.069 263.737 369.585 258.362 418.051C258.218 419.349 257.701 421.009 256.393 421.026C182.695 421.947 108.976 421.205 35.3108 418.8C34.5303 418.774 33.6784 418.721 33.0999 418.197C32.349 417.517 32.372 416.353 32.4528 415.345C36.4767 365.053 40.5006 314.761 44.5245 264.469C45.3948 263.418 46.9391 263.306 48.3041 263.277C120.904 261.689 193.56 260.102 266.119 263.022C267.825 263.091 269.643 263.199 271.024 264.202C273.453 265.966 273.422 269.526 273.147 272.512Z" fill="white"/>
<path fill-rule="evenodd" clip-rule="evenodd" d="M427.943 112.619C429.091 113.502 429.535 115.002 429.908 116.401C442.209 162.624 447.995 210.57 447.044 258.388C446.933 263.947 447.031 270.254 451.135 274.014C453.981 221.346 448.177 168.222 434.026 117.404C432.701 112.647 436.339 108.066 439.713 104.455L463.409 79.1005C474.543 123.165 477.766 168.66 477.731 214.221C475.712 217.822 473.73 221.444 472.15 225.207C468.474 233.959 466.982 243.483 466.294 252.954C463.695 288.716 472.161 324.481 484.532 358.123C485.172 359.865 485.887 361.693 487.344 362.839C488.767 363.958 490.655 364.235 492.45 364.449C510.012 366.548 527.838 366.415 545.367 364.054C546.904 363.847 548.534 363.58 549.691 362.544C550.73 361.612 551.205 360.218 551.622 358.884C560.349 330.966 561.744 301.352 562.948 272.119C563.672 254.531 563.953 235.507 553.834 221.124C552.072 218.62 550.034 216.327 547.997 214.035C545.618 211.358 543.241 208.684 541.307 205.677C537.324 199.486 535.389 191.994 535.873 184.642C536.303 178.102 528.626 174.299 522.188 173.18C521.871 173.125 521.553 173.072 521.235 173.022C521.35 170.949 521.465 169.501 521.58 169.466C527.051 167.805 532.311 165.453 537.192 162.478C539.863 160.851 542.766 157.847 541.325 155.073C540.148 152.808 536.955 152.693 534.457 153.228C530.437 154.089 526.608 155.828 523.315 158.286C525.075 150.415 528.872 143.007 534.235 136.978C532.043 140.409 535.056 145.605 539.124 145.849C543.191 146.094 546.742 141.943 546.36 137.891C547.991 141.207 552.521 142.716 555.819 141.043C559.116 139.369 560.567 134.825 558.849 131.554C561.471 134.118 566.361 133.749 568.53 130.792C570.698 127.835 569.537 123.025 566.237 121.423C568.44 121.637 570.747 121.838 572.793 120.996C574.84 120.154 576.49 117.906 575.871 115.783C575.49 114.477 574.377 113.529 573.257 112.757C569.734 110.33 565.563 108.851 561.297 108.516C562.572 107.297 564.088 106.386 565.607 105.474C566.91 104.692 568.215 103.908 569.369 102.928C571.868 100.807 573.559 96.9715 571.681 94.2865C570.328 92.353 567.582 91.8258 565.294 92.4118C563.007 92.9979 561.065 94.4691 559.193 95.9061L561.796 86.8539C562.406 84.7318 562.941 82.2068 561.525 80.512C559.537 78.1334 555.486 79.5431 553.518 81.9378C552.732 82.8941 552.094 83.9724 551.458 85.0473C550.501 86.6642 549.549 88.2736 548.104 89.4489C548.02 86.8869 547.907 84.216 546.671 81.9696C545.435 79.7232 542.703 78.0738 540.285 78.9322C538.518 79.5594 537.406 81.2904 536.611 82.9867C534.12 88.2984 533.438 94.4371 534.704 100.165C531.553 97.6721 527.335 96.2993 523.43 97.2496C519.525 98.2 516.214 101.814 516.315 105.827C516.416 109.841 520.564 113.464 524.449 112.436C521.664 113.266 518.777 114.153 516.624 116.103C514.471 118.054 513.287 121.398 514.693 123.939C516.534 127.264 521.279 127.314 524.994 126.499C529.701 125.465 534.257 123.749 538.475 121.422L531.622 133.239C526.497 142.076 519.846 156.108 517.95 172.589C512.181 171.995 506.305 172.308 500.946 174.434C494.265 177.083 488.551 182.99 487.663 190.14C487.019 195.327 485.159 200.132 482.842 204.805C481.953 162.513 477.517 120.294 469.571 78.7428C468.92 75.3429 468.11 71.6975 465.53 69.3843C462.827 66.9597 458.894 66.6303 455.266 66.4272C347.912 60.4173 240.282 59.3308 132.829 63.1722C126.888 63.3846 120.656 63.5528 115.339 60.898C111.58 59.0214 108.615 64.5576 108.033 68.712C99.3674 130.569 93.6967 192.843 91.0469 255.245C90.958 257.34 92.1544 260.375 94.0501 259.474C97.1547 195.167 103.518 131.017 113.106 67.3502L131.211 92.9244C132.503 94.7496 133.854 96.7716 133.704 99.0015L124.85 231.216C124.309 239.293 123.793 247.594 126.243 255.31C131.893 205.363 135.599 155.196 137.35 104.961C137.473 101.411 142.102 100.204 145.656 100.031C238.593 95.5101 331.631 103.557 424.328 111.596C425.594 111.706 426.936 111.845 427.943 112.619ZM517.738 174.661C510.811 173.919 503.564 176.245 497.231 179.463C494.869 180.664 492.236 182.573 492.457 185.221C492.684 187.939 495.741 189.367 498.377 190.038C507.997 192.484 518.291 192.209 527.767 189.251C530.136 188.512 532.808 187.195 533.185 184.736C533.616 181.915 530.78 179.784 528.284 178.415C526.474 177.423 524.64 176.454 522.693 175.77C522.172 175.587 521.647 175.425 521.119 175.285C521.067 176.379 521.014 177.548 520.962 178.718C520.755 183.331 520.548 187.95 520.34 188.009C519.484 188.251 518.623 188.476 517.758 188.684C517.3 183.875 517.335 179.182 517.738 174.661ZM472.094 232.088C473.441 227.68 475.472 223.535 477.713 219.477C477.616 235.365 477.144 251.255 476.496 267.089C476.347 270.731 477.352 275.693 481.003 275.722C482.594 253.976 483.238 232.161 482.939 210.36C486.184 204.643 489.131 198.832 490.427 192.421C504.198 196.829 519.555 196.043 532.807 190.253C534.116 196.931 536.752 203.344 540.516 209.006C542.409 211.853 544.584 214.516 546.756 217.175L546.756 217.176C550.195 221.386 553.626 225.586 555.916 230.493C559.327 237.805 559.918 246.085 560.203 254.153C561.394 287.784 558.195 321.568 550.715 354.373C550.06 357.249 548.779 360.688 545.864 361.082C528.691 363.401 511.248 363.704 494.006 361.982C492.238 361.806 490.346 361.553 489.028 360.36C487.817 359.264 487.336 357.594 486.909 356.015C477.485 321.139 467.98 285.582 469.559 249.482C469.816 243.612 470.376 237.705 472.094 232.088ZM323.84 64.9705L461.294 71.6764C452.723 82.6165 443.762 93.2523 434.434 103.557C430.94 107.417 424.965 107.378 419.764 107.035C403.863 105.984 387.955 104.836 372.042 103.687L372.041 103.687C295.094 98.1306 218.041 92.567 141.18 98.0632C139.391 98.1911 138.097 96.4558 137.17 94.9232L119.482 65.6798C174.686 67.8757 229.994 67.4557 285.158 64.4217C298.04 63.7132 310.954 64.3418 323.84 64.9705ZM280.139 121.927C282.42 120.964 284.791 119.975 287.267 120.063C289.284 120.134 291.198 120.916 293.065 121.681C325.937 135.163 359.477 147.021 393.522 157.197C398.666 158.735 400.084 165.208 400.614 170.543L411.064 275.639C413.308 275.395 413.711 272.33 413.493 270.086L403.02 161.857C404.72 161.6 406.373 162.319 407.968 163.014C408.153 163.094 408.337 163.174 408.52 163.252C410.284 164.005 412.373 164.589 414.06 163.675C415.746 162.76 416.03 159.718 414.189 159.176C373.161 147.103 332.549 133.617 292.452 118.749C290.757 118.12 289.016 117.48 287.207 117.489C285.499 117.498 283.853 118.086 282.247 118.667L156.743 164.025C156.18 166.387 159.922 167.262 162.139 166.263C162.477 166.111 162.823 165.943 163.174 165.773L163.174 165.772C165.129 164.824 167.243 163.799 168.951 164.953C166.161 192.702 163.818 220.496 161.925 248.32C161.746 250.947 162.548 254.625 165.179 254.428L171.802 167.277C171.99 164.792 172.581 161.768 174.956 161.003C210.569 149.528 245.675 136.486 280.139 121.927ZM357.889 384.372C359.695 384.342 361.965 383.971 362.438 382.231C361.671 380.77 359.692 380.574 358.04 380.564L283.669 380.121C276.956 380.081 270.119 380.058 263.706 382.04C264.147 383.544 266.104 383.868 267.674 383.91C297.738 384.722 327.819 384.876 357.889 384.372ZM280.285 395.891C274.394 395.82 268.417 395.738 262.763 394.088C293.987 393.018 325.245 392.913 356.476 393.773C359.131 393.847 361.988 393.996 364.078 395.633C363.653 396.71 362.217 396.87 361.056 396.856L280.285 395.891ZM356.338 352.5C328.239 353.584 300.063 352.699 272.088 349.853C270.182 349.66 267.592 349.947 267.31 351.838C297.666 355.473 328.305 356.754 358.859 355.665C359.272 354.153 357.907 352.44 356.338 352.5ZM334.347 245.456C335.641 246.588 335.899 248.468 336.072 250.177L342.325 312.03C348.03 311.835 353.767 312.64 359.198 314.395L342.831 317.286C346.682 323.18 349.667 329.636 351.663 336.385C327.414 336.173 303.171 335.254 278.976 333.629C277.567 333.535 275.975 333.343 275.131 332.213C274.097 330.829 274.76 328.876 275.456 327.295L280.106 316.732C280.846 315.05 278.218 313.88 276.411 314.225C276.304 314.246 276.195 314.267 276.085 314.29L275.878 314.331C274.175 314.676 272.215 315.072 271.246 313.722C269.743 311.628 273.171 309.31 275.736 309.592C276.229 309.646 276.74 309.727 277.257 309.809L277.258 309.809C279.431 310.152 281.702 310.51 283.124 308.989C284.001 287.781 285.971 266.619 289.026 245.613C289.147 244.778 289.316 243.86 289.978 243.335C290.578 242.86 291.411 242.847 292.176 242.857C304.821 243.021 317.462 243.48 330.085 244.233C331.589 244.323 333.214 244.464 334.347 245.456ZM329.754 247.398C318.218 246.354 306.656 245.598 295.082 245.132C294.088 245.092 292.997 245.084 292.223 245.708C291.392 246.379 291.205 247.548 291.08 248.607C288.754 268.252 287.28 287.997 286.666 307.769C286.643 308.505 286.662 309.341 287.209 309.834C287.628 310.211 288.236 310.27 288.799 310.309C304.471 311.404 320.174 312.069 335.883 312.302C336.599 312.313 337.398 312.29 337.905 311.786C338.455 311.237 338.43 310.356 338.367 309.582L333.613 250.857C333.552 250.107 333.477 249.316 333.042 248.701C332.339 247.706 330.969 247.507 329.754 247.398ZM341.238 320.041C340.838 319.329 340.398 318.594 339.698 318.17C339.014 317.755 338.177 317.698 337.378 317.652L289.223 314.869C287.737 314.784 286.126 314.731 284.904 315.578C283.916 316.263 283.375 317.408 282.878 318.5L278.592 327.906C278.34 328.46 278.092 329.129 278.412 329.647C278.731 330.161 279.434 330.243 280.039 330.27L347.047 333.256C345.546 328.677 343.597 324.244 341.238 320.041ZM260.484 166.017C261.337 169.156 263.108 172.002 265.335 174.376C272.59 182.106 285.018 184.395 294.586 179.815C304.155 175.235 310.141 164.175 308.796 153.667C307.451 143.16 298.914 133.978 288.529 131.796C282.521 130.533 276.102 132.645 271.375 136.557C266.648 140.469 263.484 146.01 261.55 151.828C260.032 156.395 259.222 161.373 260.484 166.017ZM303.373 155.172C298.264 155.619 293.124 155.722 288.001 155.481C287.571 155.461 287.113 155.428 286.773 155.166C286.257 154.769 286.213 154.023 286.214 153.373L286.232 140.05C286.233 139.186 286.263 138.241 286.827 137.585C287.938 136.293 290.053 137.085 291.445 138.069C297.237 142.167 301.533 148.327 303.373 155.172ZM269.135 156.407C268.75 156.438 268.342 156.465 267.998 156.29C267.1 155.835 267.299 154.511 267.671 153.577C270.587 146.266 276.065 140.003 282.928 136.131L282.975 153.966C282.976 154.357 282.96 154.792 282.683 155.069C282.435 155.316 282.055 155.358 281.706 155.387L269.135 156.407ZM267.515 164.943C266.621 163.511 266.113 161.209 267.641 160.487C268.146 160.248 268.732 160.287 269.289 160.331L280.594 161.224C281.674 161.309 282.915 161.488 283.486 162.407C283.788 162.893 283.83 163.492 283.864 164.064L284.426 173.585C284.459 174.143 284.465 174.777 284.066 175.169C283.617 175.611 282.886 175.529 282.27 175.392C276.229 174.041 270.789 170.189 267.515 164.943ZM286.911 173.695L286.543 164.065C286.516 163.378 286.529 162.593 287.043 162.135C287.505 161.724 288.195 161.739 288.812 161.777L302.361 162.612C299.403 167.427 295.2 171.473 290.272 174.249C289.077 174.922 286.963 175.064 286.911 173.695ZM206.42 144.744C204.032 143.238 204.151 139.784 204.554 136.993L206.179 125.739C206.461 123.78 207.606 121.205 209.518 121.73C211.154 122.18 211.251 124.435 210.998 126.11L208.966 139.585C208.669 141.555 208.182 143.807 206.42 144.744ZM154.254 315.532C154.507 314.424 154.978 313.258 155.972 312.704C157.495 311.857 159.512 312.957 160.269 314.525C161.027 316.093 160.879 317.927 160.715 319.661C160.585 321.033 160.434 322.469 159.666 323.614C158.897 324.759 157.3 325.477 156.092 324.808C155.313 324.377 154.894 323.506 154.611 322.662C153.843 320.378 153.718 317.882 154.254 315.532ZM187.19 105.331C184.41 106.752 184.222 110.58 184.416 113.693C184.53 115.525 184.857 117.693 186.51 118.498C187.148 118.809 187.88 118.848 188.59 118.879C196.073 119.206 203.566 119.31 211.055 119.191C212.099 119.175 213.205 119.135 214.077 118.563C215.483 117.641 215.758 115.734 215.9 114.062C216.05 112.302 216.194 110.484 215.638 108.807C215.081 107.131 213.635 105.616 211.866 105.551L191.231 104.792C189.857 104.741 188.414 104.705 187.19 105.331ZM189.035 116.078C188.469 115.75 188.314 115.018 188.214 114.373C187.893 112.288 187.85 109.623 189.741 108.681C190.489 108.308 191.365 108.33 192.2 108.36L205.499 108.836C207.282 108.9 209.161 108.992 210.664 109.952C212.166 110.911 213.062 113.059 212.059 114.531C211.156 115.857 209.292 116.01 207.687 116.032L190.195 116.272C189.798 116.278 189.379 116.277 189.035 116.078ZM95.8934 310.466C98.8161 315.326 96.6297 321.508 94.5972 326.801C90.9872 336.202 88.0714 346.939 92.284 356.087C93.2391 358.161 94.4483 360.865 92.7962 362.443C87.3659 357.344 86.0728 349.088 87.1741 341.727C87.9212 336.735 89.5934 331.96 91.2669 327.182L91.267 327.182L91.2671 327.181C92.0607 324.916 92.8545 322.649 93.5501 320.358C94.1742 318.303 94.7224 316.112 94.1956 314.03C93.5146 311.338 91.1509 309.37 88.6284 308.201C84.0169 306.063 78.0177 306.245 74.3782 309.789C70.7386 313.333 70.9855 320.45 75.4891 322.806C77.4487 323.832 80.0997 323.747 81.6504 322.172C83.2011 320.597 82.9832 317.5 80.9941 316.533C83.6545 315.886 86.3484 318.131 87.1011 320.759C87.8537 323.388 87.1512 326.201 86.2468 328.781C85.4746 330.984 84.5513 333.149 83.6287 335.313C81.618 340.027 79.6111 344.734 79.1805 349.802C78.6217 356.378 80.7814 362.801 82.897 369.094C83.115 369.742 83.3326 370.389 83.5467 371.035C84.054 372.566 84.4665 374.466 83.3302 375.612C77.0058 368.709 75.2676 358.568 76.5721 349.305C77.8767 340.041 81.8566 331.397 85.79 322.907C84.7291 322.997 83.8095 323.561 82.8881 324.127C82.5039 324.363 82.1195 324.599 81.7243 324.801C76.9606 327.234 70.515 323.881 69.0695 318.738C67.6241 313.595 70.7008 307.826 75.4586 305.381C80.2164 302.935 86.1616 303.507 90.8786 306.03C92.8715 307.096 94.7297 308.531 95.8934 310.466ZM195.183 121.666C194.804 120.604 193.824 119.669 192.695 119.713C190.725 119.79 190.05 122.339 189.931 124.304L188.759 143.744C188.686 144.957 188.653 146.301 189.432 147.235C190.211 148.17 192.107 148.092 192.331 146.897C193.689 139.656 194.704 132.352 195.37 125.016C195.472 123.893 195.561 122.729 195.183 121.666ZM115.36 378.989C112.396 379.383 110.452 382.736 110.908 385.686C111.365 388.636 113.676 391.03 116.332 392.401C117.027 392.76 116.713 393.95 115.98 394.22C115.246 394.49 114.435 394.142 113.768 393.734C110.878 391.968 108.818 388.905 108.275 385.566C107.935 383.468 108.238 381.139 109.663 379.56C111.087 377.98 113.818 377.524 115.36 378.989ZM190.331 333.793C189.424 336.685 188.516 339.578 187.846 342.53C184.654 356.596 186.986 371.324 190.548 385.301C191.474 388.934 187.425 392.507 183.719 391.904C180.013 391.302 177.371 387.612 177.009 383.881C176.969 383.47 176.95 383.053 176.931 382.635V382.635C176.877 381.446 176.823 380.256 176.285 379.211C175.557 377.8 173.408 376.984 172.381 378.196C174.644 382.386 176.32 388.756 172.078 390.93C168.017 393.011 163.694 388.205 162.652 383.768C162.002 380.997 159.892 377.112 157.552 378.739C158.445 380.302 159.132 381.99 159.818 383.673L159.818 383.674C160.955 386.465 162.086 389.244 164.137 391.414C167.425 394.892 174.693 395.073 175.853 390.432C178.352 392.486 181.236 394.246 184.446 394.667C187.655 395.088 191.224 393.915 192.946 391.178C195.093 387.764 193.831 383.381 192.705 379.472L192.595 379.09C189.133 367.033 188.757 354.107 191.512 341.869C192.107 339.231 192.844 336.622 193.58 334.014C194.852 329.511 196.123 325.012 196.655 320.372C197.651 311.685 195.945 302.708 191.831 294.988C190.707 292.879 187.358 293.264 185.651 294.939C184.561 296.009 183.878 297.381 183.192 298.759L183.192 298.759C182.804 299.538 182.415 300.319 181.951 301.047C180.668 303.064 178.203 304.801 175.997 303.875C172.317 302.33 168.271 302.625 164.225 302.92H164.225H164.224H164.224H164.224H164.224H164.223H164.223H164.223H164.222H164.222H164.222H164.222H164.221H164.221H164.221H164.221C162.688 303.032 161.156 303.144 159.644 303.156C154.137 303.198 147.581 300.814 146.62 295.401C146.204 293.063 142.864 292.318 140.857 293.594C138.851 294.869 137.947 297.297 137.314 299.586C134.367 310.244 134.49 321.729 137.666 332.322C138.677 335.696 134.135 337.777 130.701 338.583C106.897 344.173 87.1187 364.188 81.8438 388.023C81.5017 389.569 82.2618 392.018 83.6835 391.316C88.5592 366.266 110.028 345.297 135.224 340.976C138.395 340.432 140.398 337.061 140.644 333.859C140.837 331.341 140.229 328.863 139.624 326.394L139.624 326.393C139.459 325.723 139.295 325.052 139.147 324.382C137.085 315.048 138.227 305.039 142.339 296.407C146.394 298.483 149.275 302.688 149.743 307.212C158.639 305.366 167.932 305.454 176.791 307.469C179.924 308.182 181.72 305.261 183.59 302.219C185.307 299.427 187.086 296.533 190.02 296.245C193.741 304.567 194.88 314.019 193.241 322.984C192.569 326.658 191.45 330.225 190.331 333.793ZM178.735 338.765L173.953 336.502C172.643 335.882 171.29 335.23 170.356 334.124C175.202 333.889 180.115 335.537 183.836 338.645C182.802 340.192 180.419 339.562 178.735 338.765ZM146.945 393.756C146.686 390.112 146.244 386.481 145.62 382.881C145.371 381.445 145.036 379.907 143.955 378.926C142.874 377.945 140.804 377.973 140.229 379.313C142.807 380.482 143.648 383.717 143.742 386.542C143.759 387.059 143.763 387.583 143.767 388.109C143.786 390.454 143.805 392.836 144.978 394.825C145.209 395.217 145.554 395.623 146.009 395.62C146.794 395.614 147 394.538 146.945 393.756ZM161.137 328.805C158.301 330.651 154.932 331.67 151.547 331.708C150.454 331.72 149.177 331.523 148.648 330.568C152.387 328.436 156.952 327.791 161.137 328.805ZM172.993 317.112C172.593 318.858 172.788 320.734 173.538 322.361C174.09 323.56 175.434 324.747 176.592 324.111C177.095 323.834 177.379 323.287 177.601 322.758C178.348 320.975 178.716 319.034 178.674 317.101C178.651 316.026 178.433 314.832 177.567 314.192C175.837 312.916 173.472 315.018 172.993 317.112ZM379.269 182.629C380.455 183.688 380.624 185.449 380.713 187.035L382.701 222.61C382.836 225.023 382.211 228.321 379.79 228.371L326.741 229.453C325.903 229.47 324.993 229.464 324.331 228.951C323.528 228.328 323.381 227.195 323.296 226.184L320.278 190.038C320.091 187.795 320.496 184.761 322.733 184.473C340.123 182.234 357.677 181.262 375.209 181.569C376.64 181.594 378.203 181.677 379.269 182.629ZM353.409 190.557C353.534 189.678 353.62 188.667 353.012 188.019C352.433 187.402 351.473 187.387 350.625 187.417L326.914 188.243C326.416 188.26 325.87 188.297 325.512 188.642C325.061 189.075 325.101 189.793 325.173 190.414L326.521 201.965C326.752 203.948 327.864 206.581 329.795 206.06C336.326 204.297 343.166 203.679 349.908 204.244C351.101 204.343 351.662 202.824 351.83 201.641L353.409 190.557ZM350.842 220.973L351.426 211C351.467 210.291 351.478 209.494 350.988 208.98C350.556 208.525 349.872 208.443 349.246 208.395C342.46 207.874 335.602 208.272 328.922 209.576C328.513 209.655 328.082 209.749 327.774 210.03C327.257 210.499 327.266 211.299 327.314 211.995L328.017 222.263C328.09 223.322 328.268 224.558 329.197 225.075C329.797 225.41 330.532 225.329 331.213 225.239L349.305 222.842C349.648 222.796 350.008 222.744 350.282 222.535C350.738 222.188 350.809 221.543 350.842 220.973ZM356.196 189.397L355.451 201.493C355.418 202.03 355.404 202.627 355.755 203.035C356.19 203.542 356.969 203.522 357.635 203.458L374.826 201.831C375.288 201.787 375.786 201.728 376.127 201.413C376.527 201.044 376.585 200.443 376.617 199.899L377.296 188.297C377.322 187.849 377.332 187.348 377.034 187.012C376.69 186.623 376.094 186.621 375.576 186.649L358.139 187.597C357.563 187.628 356.919 187.692 356.549 188.134C356.263 188.475 356.223 188.953 356.196 189.397ZM376.354 220.962C377.312 220.037 377.301 218.527 377.222 217.2L376.777 209.642C376.703 208.37 376.19 206.684 374.917 206.779L357.618 208.071C356.97 208.119 356.24 208.21 355.849 208.728C355.555 209.118 355.54 209.645 355.538 210.134L355.49 220.113C355.487 220.714 355.509 221.379 355.923 221.815C356.322 222.235 356.958 222.304 357.538 222.342C362.898 222.691 368.291 222.551 373.626 221.923C374.602 221.808 375.648 221.643 376.354 220.962ZM167.778 326.212C166.298 325.466 164.307 325.956 163.342 327.303C162.239 328.843 162.708 331.268 164.305 332.289C165.903 333.31 168.306 332.72 169.246 331.075C170.185 329.43 169.472 327.065 167.778 326.212ZM186.218 329.212C187.1 329.95 185.652 331.155 184.512 331.312C180.239 331.901 175.829 331.475 171.749 330.079C173.269 328.475 175.782 328.474 177.991 328.586L185.275 328.956C185.606 328.973 185.963 328.999 186.218 329.212ZM157.835 332.653L151.045 336.401C150.154 336.893 149.118 337.872 149.669 338.727C150.181 339.523 151.407 339.133 152.228 338.661L160.698 333.786C160.877 333.111 160.422 332.335 159.745 332.16C159.092 331.99 158.425 332.327 157.835 332.653ZM232.15 274.635C232.805 273.857 233.515 273.042 234.49 272.75C235.464 272.458 236.747 272.969 236.87 273.977C234.197 277.789 230.879 281.149 227.099 283.871C227.454 280.325 229.853 277.364 232.15 274.635ZM236.449 282.181L242.083 276.054C242.703 275.38 243.359 274.406 242.864 273.636C242.163 272.544 240.493 273.505 239.645 274.487L233.023 282.149C232.769 282.912 233.703 283.639 234.499 283.52C235.296 283.401 235.905 282.773 236.449 282.181ZM187.699 184.79C188.733 183.722 190.327 183.469 191.803 183.286C209.682 181.068 227.788 180.677 245.747 182.121C246.864 182.211 248.174 182.433 248.668 183.436C248.92 183.948 248.888 184.547 248.85 185.116L245.963 228.537C245.854 230.185 245.56 232.126 244.082 232.867C243.371 233.224 242.537 233.205 241.741 233.179L190.535 231.448C189.534 231.415 188.435 231.341 187.716 230.647C187.014 229.97 186.889 228.909 186.811 227.938C185.765 215.042 185.615 202.073 186.363 189.156C186.453 187.602 186.615 185.909 187.699 184.79ZM215.917 185.797C208.27 185.685 200.618 185.819 192.979 186.196C191.787 186.255 190.422 186.413 189.749 187.396C189.298 188.056 189.294 188.912 189.307 189.711L189.819 221.697C189.858 224.089 190.577 227.24 192.97 227.366L216.179 228.592C216.598 228.614 217.053 228.626 217.393 228.381C217.846 228.054 217.909 227.417 217.932 226.859L218.599 210.276C218.625 209.636 218.608 208.895 218.108 208.493C217.769 208.22 217.301 208.189 216.866 208.171C208.53 207.836 200.158 208.381 191.936 209.796C190.995 209.958 190.471 208.53 191.022 207.751C191.572 206.973 192.614 206.753 193.556 206.603C201.297 205.368 209.134 204.736 216.973 204.714C218.293 204.711 218.704 202.945 218.702 201.627L218.684 190.752C218.681 188.643 218.03 185.828 215.917 185.797ZM240.676 208.134L225.49 208.101C224.471 208.098 223.31 208.159 222.66 208.942C222.199 209.497 222.13 210.268 222.081 210.988L221.097 225.46C221.007 226.784 221.059 228.391 222.208 229.059C222.713 229.352 223.325 229.382 223.91 229.404L238.838 229.964C239.301 229.981 239.803 229.988 240.18 229.719C240.671 229.37 240.771 228.695 240.83 228.095L242.592 209.97C242.632 209.558 242.665 209.112 242.448 208.759C242.106 208.199 241.332 208.135 240.676 208.134ZM242.245 203.747C243.114 203.191 243.37 202.06 243.542 201.044C244.196 197.192 244.721 193.318 245.115 189.431C245.184 188.751 245.212 187.967 244.715 187.497C244.337 187.141 243.774 187.086 243.256 187.051L224.945 185.794C224.284 185.748 223.521 185.743 223.084 186.239C222.734 186.637 222.723 187.22 222.73 187.749L222.946 202.583C222.952 202.941 222.964 203.323 223.169 203.618C223.502 204.095 224.18 204.142 224.763 204.142L240.169 204.145C240.884 204.145 241.643 204.133 242.245 203.747ZM293.088 321.346C291.438 321.388 289.604 321.516 288.469 322.713C288.999 323.771 290.417 323.936 291.602 323.962L333.79 324.887C334.674 324.906 334.976 323.543 334.387 322.885C333.797 322.227 332.82 322.125 331.938 322.07C319.007 321.261 306.04 321.019 293.088 321.346ZM271.297 271.1C266.816 319.657 261.888 368.173 256.513 416.639C256.369 417.937 255.852 419.597 254.543 419.613C180.845 420.535 107.126 419.793 33.4612 417.388C32.6806 417.362 31.8288 417.309 31.2503 416.785C30.4994 416.105 30.5224 414.941 30.6032 413.932L42.6749 263.056C43.5452 262.006 45.0895 261.894 46.4545 261.864C119.054 260.277 191.711 258.69 264.269 261.61C265.976 261.679 267.793 261.787 269.174 262.79C271.603 264.554 271.572 268.114 271.297 271.1ZM234.75 290.04C180.351 284.461 125.516 283.125 70.9087 286.048C70.2075 286.085 69.4452 286.148 68.928 286.622C68.3797 287.125 68.2731 287.935 68.2002 288.675L58.0486 391.71C57.976 392.447 57.9246 393.264 58.3763 393.851C58.916 394.554 59.9295 394.63 60.8163 394.645L219.343 397.378C220.323 397.395 221.419 397.367 222.11 396.674C222.684 396.097 222.805 395.225 222.897 394.417L234.75 290.04ZM238.487 289.675C237.765 291.024 237.58 292.586 237.407 294.105L226.308 391.823C226.162 393.111 226.025 394.47 226.551 395.655C227.139 396.983 228.438 397.832 229.669 398.604L252.599 412.995C258.615 364.905 264.634 316.773 267.423 268.39L242.568 285.749C241.005 286.841 239.385 287.995 238.487 289.675ZM241.692 282.532L262.093 267.284C220.779 263.751 179.303 264.351 137.812 264.952H137.812H137.812H137.812C108.345 265.378 78.8703 265.805 49.441 264.751L61.8146 278.257C63.7759 280.398 66.1545 282.717 69.055 282.535C123.845 279.098 178.922 280.236 233.523 285.932C236.531 286.246 239.271 284.342 241.692 282.532ZM228.266 401.743C225.689 400.901 222.932 400.837 220.222 400.78L61.2685 397.481C58.5877 397.426 55.8189 397.386 53.3373 398.399C51.2875 399.236 49.5891 400.732 47.9333 402.2L33.6969 414.824C69.2575 413.254 104.86 414.185 140.462 415.116C176.973 416.07 213.483 417.024 249.945 415.281L234.73 405.229C232.681 403.876 230.601 402.507 228.266 401.743ZM61.4688 297.116C62.3577 285.815 56.2283 274.254 46.3667 268.632C41.8698 315.82 37.795 363.048 34.1429 410.309L49.5654 398.171C51.5964 396.572 53.7963 394.673 53.9988 392.099L61.4688 297.116ZM304.552 269.943C302.957 268.147 300.467 267.186 298.077 267.442C295.367 267.734 292.887 269.604 291.867 272.126C290.847 274.648 291.33 277.713 293.077 279.801C295.642 282.865 300.792 283.288 303.825 280.683C306.857 278.078 307.206 272.932 304.552 269.943ZM296.604 270.966C297.595 270.407 298.793 270.225 299.905 270.464C302.742 271.074 304.428 274.722 303.054 277.273C301.679 279.823 297.699 280.427 295.627 278.401C293.554 276.374 294.078 272.39 296.604 270.966ZM541.999 106.749C538.735 103.907 536.986 99.5606 536.825 95.2384C536.664 90.9161 537.985 86.6283 540.063 82.8339C540.621 81.8152 542.187 81.775 543.115 82.4738C544.044 83.1725 544.475 84.3372 544.805 85.4507C546.828 92.2826 546.72 99.7274 544.5 106.498C544.421 106.738 544.335 106.985 544.159 107.166C543.593 107.748 542.611 107.283 541.999 106.749ZM536.408 111.538C532.221 111.699 528.009 111.196 523.977 110.055C521.74 109.421 519.262 108.28 518.692 106.029C518.199 104.081 519.471 101.998 521.245 101.052C523.02 100.106 525.155 100.099 527.136 100.444C531.821 101.261 536.143 103.989 538.892 107.866C539.291 108.429 539.674 109.081 539.576 109.764C539.389 111.069 537.727 111.487 536.408 111.538ZM537.047 115.433L537.381 120.237L525.668 123.758C523.42 124.434 520.924 125.096 518.799 124.098C516.674 123.1 515.8 119.616 517.854 118.478C523.271 115.477 529.53 114.009 535.719 114.289C536.143 114.308 536.627 114.367 536.867 114.717C537.008 114.922 537.03 115.184 537.047 115.433ZM560.64 129.924C555.509 127.526 552.005 122.716 548.728 118.1C548.577 117.888 548.419 117.65 548.447 117.391C548.513 116.775 549.402 116.752 550.002 116.912C555.845 118.461 562.041 120.221 566.053 124.737C566.906 125.698 567.677 126.91 567.482 128.179C567.274 129.533 565.966 130.523 564.611 130.729C563.256 130.935 561.882 130.505 560.64 129.924ZM556.565 136.286C556.454 137.569 555.653 138.871 554.405 139.195C553.643 139.394 552.83 139.209 552.104 138.904C548.39 137.341 546.701 133.06 545.86 129.123C545.164 125.86 544.783 122.53 544.726 119.194C549.55 122.5 553.411 127.191 555.724 132.557C556.233 133.74 556.676 135.003 556.565 136.286ZM557.399 82.4124C558.404 82.1552 559.691 82.9651 559.477 83.9796C557.722 92.3069 555.024 101.425 547.708 105.786C548.248 98.1816 550.831 90.7311 555.116 84.422C555.699 83.5641 556.393 82.6696 557.399 82.4124ZM571.442 118.439C570.194 118.424 568.948 118.32 567.708 118.182C561.572 117.499 555.528 115.987 549.794 113.7C556.877 109.318 566.88 110.387 572.876 116.165C573.179 116.458 573.492 116.803 573.507 117.224C573.538 118.121 572.34 118.45 571.442 118.439ZM535.997 138.532C535.963 133.433 538.068 128.353 541.698 124.767C541.586 124.351 542.52 124.601 542.215 124.906C543.829 129.452 544.181 134.438 543.221 139.166C542.784 141.316 541.502 143.848 539.307 143.751C537.027 143.651 536.012 140.812 535.997 138.532ZM537.373 159.31L520.813 167.941C520.385 166.157 520.647 164.216 521.534 162.609C523.419 159.192 527.548 157.819 531.3 156.735C533.389 156.132 535.522 155.523 537.695 155.61C538.183 155.63 538.706 155.701 539.062 156.034C540.12 157.026 538.659 158.64 537.373 159.31ZM564.807 96.1645C565.994 95.6189 567.655 95.2447 568.395 96.3208C569.111 97.3643 568.241 98.7494 567.348 99.6469C563.462 103.551 558.482 106.155 553.512 108.534C552.146 109.188 549.975 109.496 549.598 108.03C553.658 102.972 558.91 98.8745 564.807 96.1645ZM543.568 116.66C542.134 117.128 540.221 116.45 539.953 114.967C539.783 114.024 540.31 113.092 540.943 112.371C542.244 110.89 544.092 109.9 546.047 109.636C546.525 109.571 547.037 109.554 547.461 109.785C548.825 110.527 547.974 112.603 546.991 113.803C546.036 114.97 545.002 116.192 543.568 116.66Z" fill="#612500"/>
<path fill-rule="evenodd" clip-rule="evenodd" d="M508.921 189.028C495.669 194.819 480.312 195.604 466.541 191.197C463.641 205.534 452.484 216.876 448.207 230.863C446.49 236.481 445.93 242.387 445.673 248.258C444.094 284.357 453.599 319.914 463.023 354.79C463.45 356.369 463.93 358.039 465.141 359.135C466.46 360.329 468.352 360.581 470.12 360.758C487.362 362.48 504.804 362.177 521.977 359.857C524.892 359.463 526.173 356.024 526.829 353.148C534.309 320.343 537.507 286.559 536.317 252.928C536.031 244.861 535.44 236.58 532.029 229.269C528.294 221.262 521.519 215.137 516.63 207.782C512.866 202.119 510.23 195.706 508.921 189.028Z" fill="white"/>
<path fill-rule="evenodd" clip-rule="evenodd" d="M484.621 187.078C485.5 188.53 485.665 191.259 483.973 191.091C478.411 180.479 471.707 170.464 464.013 161.273C464.198 162.676 464.382 164.078 464.567 165.481C464.942 168.328 465.313 171.255 464.611 174.04C463.909 176.824 461.876 179.47 459.052 180.023C456.228 180.575 452.955 178.215 453.301 175.364C453.311 178.484 450.043 181.127 446.959 180.617C443.874 180.106 441.647 176.726 442.248 173.665C442.522 172.265 440.601 171.358 439.234 171.774C437.867 172.19 436.835 173.313 435.539 173.913C431.544 175.765 426.819 171.578 426.592 167.189C426.366 162.8 430.037 154.29 433.017 151.054C428.836 150.379 425.47 146.349 425.558 142.123C425.647 137.897 429.178 134.011 433.385 133.51C430.186 129.372 426.918 123.559 430.031 119.356C432.305 116.285 437.104 116.08 440.431 117.965C443.758 119.85 445.901 123.259 447.672 126.643C447.626 123.885 447.59 121.059 448.503 118.455C449.416 115.852 451.49 113.473 454.212 112.994C456.935 112.516 460.061 114.598 460.003 117.356C459.957 119.492 458.805 122.661 460.915 123.025C462.056 120.139 466.039 119.05 468.783 120.511C471.526 121.971 472.884 125.358 472.512 128.438C472.14 131.518 470.294 134.268 467.988 136.349C471.381 136.566 475.515 137.317 476.606 140.53C477.665 143.652 474.886 146.837 471.881 148.204C468.875 149.572 465.42 149.981 462.709 151.864C466.996 154.577 471.383 161.088 475.111 167.803C479.907 176.442 483.615 185.418 484.621 187.078Z" fill="white"/>
<path fill-rule="evenodd" clip-rule="evenodd" d="M461.791 151.864C465.92 155.135 469.665 158.89 472.923 163.027C473.806 159.652 474.843 156.033 477.583 153.866C480.323 151.7 485.302 152.159 486.35 155.487C486.736 156.714 486.519 158.042 486.232 159.295C485.028 164.532 482.621 169.49 479.246 173.678C481.034 176.629 482.822 179.58 484.61 182.531C485.49 183.982 485.654 186.712 483.963 186.543C478.401 175.932 471.696 165.917 464.003 156.726C464.187 158.129 464.372 159.531 464.557 160.934C464.931 163.78 465.302 166.708 464.601 169.493C463.899 172.277 461.865 174.923 459.042 175.476C456.218 176.028 452.945 173.667 453.291 170.817C453.301 173.937 450.033 176.58 446.948 176.069C443.864 175.559 441.637 172.179 442.238 169.117C442.512 167.718 440.59 166.811 439.224 167.227C437.857 167.643 436.824 168.766 435.529 169.366C431.534 171.218 426.809 167.031 426.582 162.642C426.355 158.253 429.119 154.29 432.099 151.054C427.918 150.379 424.552 146.349 424.64 142.123C424.729 137.897 428.26 134.011 432.467 133.51C429.268 129.372 426 123.559 429.113 119.356C431.387 116.285 436.186 116.08 439.513 117.965C442.84 119.85 444.983 123.259 446.754 126.643C446.708 123.885 446.672 121.059 447.585 118.455C448.498 115.852 450.572 113.473 453.294 112.994C456.017 112.516 459.143 114.598 459.085 117.356C459.039 119.492 457.887 122.661 459.997 123.025C461.138 120.139 465.122 119.05 467.865 120.511C470.608 121.971 471.966 125.358 471.594 128.438C471.222 131.518 469.376 134.268 467.07 136.349C470.463 136.566 474.597 137.317 475.688 140.53C476.747 143.652 473.968 146.837 470.963 148.204C467.957 149.572 464.502 149.981 461.791 151.864ZM432.251 120.199C429.798 122.063 430.154 125.955 431.712 128.61C434.442 133.262 439.638 135.803 444.571 138.004C445.636 138.479 447.24 138.754 447.66 137.668C447.855 137.165 447.653 136.606 447.453 136.106C445.995 132.464 444.532 128.81 442.641 125.372C441.578 123.441 440.324 121.522 438.466 120.333C436.608 119.144 434.007 118.865 432.251 120.199ZM427.425 141.227C426.788 144.646 430.132 147.767 433.585 148.237C437.038 148.707 440.442 147.31 443.647 145.942C444.493 145.581 445.408 145.156 445.803 144.326C446.603 142.641 444.755 140.955 443.155 139.993C440.487 138.388 437.682 136.74 434.572 136.553C431.463 136.367 427.994 138.171 427.425 141.227ZM468.558 126.797C468.699 126.108 468.793 125.37 468.523 124.72C468.054 123.588 466.648 123.135 465.422 123.217C461.698 123.467 459.196 127.095 457.705 130.51C456.381 133.544 455.385 136.72 454.742 139.966C461.436 138.915 467.199 133.421 468.558 126.797ZM456.09 152.46C454.023 152.788 453.797 155.647 454.108 157.713C454.416 159.764 454.725 161.815 455.034 163.865C455.533 167.182 456.421 171.032 459.494 172.39C462.695 167.066 462.659 159.967 459.406 154.675C458.666 153.473 457.486 152.238 456.09 152.46M446.631 171.973C446.87 172.278 447.154 172.587 447.533 172.675C448.471 172.892 449.079 171.724 449.293 170.787C450.745 164.439 450.691 157.857 450.63 151.347C450.584 150.864 449.819 151.141 449.526 151.528C447.282 154.484 445.343 157.766 444.576 161.395C443.808 165.023 444.341 169.052 446.631 171.973ZM458.909 141.373C458.43 141.621 457.943 141.881 457.582 142.282C456.389 143.608 457.224 145.917 458.791 146.772C460.358 147.627 462.286 147.406 464.018 146.969C466.577 146.324 469.029 145.259 471.246 143.829C472.1 143.278 473.024 142.4 472.745 141.424C472.625 141.001 472.293 140.673 471.946 140.401C468.316 137.553 463.007 139.252 458.909 141.373ZM451.149 137.748C453.983 131.531 455.411 124.68 455.296 117.852C455.289 117.451 455.27 117.027 455.049 116.692C454.275 115.521 452.477 116.706 451.776 117.921C448.33 123.887 448.087 131.577 451.149 137.748M446.08 151.956C446.779 151.669 446.485 150.482 445.771 150.235C445.056 149.988 444.287 150.34 443.615 150.685C439.462 152.816 435.131 155.2 432.772 159.221C431.972 160.584 431.517 162.519 432.677 163.593C433.734 164.573 435.483 164.168 436.665 163.342C440.773 160.475 441.444 153.859 446.08 151.956ZM482.21 155.218C481.582 154.564 480.498 155.176 479.852 155.813C477.73 157.903 475.852 160.405 475.274 163.323C474.697 166.242 475.711 169.62 478.273 171.141C481.27 166.859 482.801 161.575 482.555 156.357C482.536 155.952 482.492 155.511 482.21 155.218ZM448.641 143.337C449.53 146.028 451.378 148.392 453.776 149.909C454.535 150.388 455.272 149.218 455.324 148.323C455.489 145.524 454.371 142.675 452.345 140.732C451.542 139.962 450.351 139.305 449.359 139.811C448.19 140.407 448.23 142.093 448.641 143.337Z" fill="#612500"/>
<path fill-rule="evenodd" clip-rule="evenodd" d="M352.004 271.971C348.131 272.074 344.204 272.206 340.498 273.336C349.448 317.695 350.365 363.219 355.036 408.228C355.125 409.088 355.245 410.014 355.838 410.644C356.511 411.36 357.588 411.483 358.569 411.56C422.118 416.553 486.021 417.064 549.642 413.089C550.448 413.038 551.322 412.959 551.915 412.413C552.632 411.752 552.683 410.659 552.677 409.685C552.57 392.628 550.139 375.679 547.713 358.794C543.95 332.611 540.188 306.428 536.425 280.245C536.282 279.249 536.078 278.147 535.271 277.545C534.669 277.096 533.87 277.038 533.12 276.997C472.798 273.682 412.396 270.365 352.004 271.971Z" fill="white"/>
<ellipse cx="502.798" cy="350.281" rx="1.8153" ry="1.81887" fill="#612500"/>
<ellipse cx="489.64" cy="350.281" rx="1.8153" ry="1.81887" fill="#612500"/>
<ellipse cx="455.149" cy="368.924" rx="1.36147" ry="1.36415" fill="#612500"/>
<ellipse cx="443.801" cy="368.924" rx="1.36147" ry="1.36415" fill="#612500"/>
<ellipse cx="408.858" cy="350.281" rx="2.72295" ry="2.7283" fill="#612500"/>
<ellipse cx="388.889" cy="351.19" rx="2.72295" ry="2.7283" fill="#612500"/>
<path fill-rule="evenodd" clip-rule="evenodd" d="M552.202 417.602C487.146 421.478 421.801 420.505 356.891 414.693C355.11 414.534 353.155 414.288 351.948 412.971C350.836 411.758 350.68 409.978 350.578 408.337C347.766 363.11 343.458 317.976 337.662 273.033C337.293 270.17 341.057 268.81 343.934 268.522C383.548 264.557 423.348 266.459 463.179 268.362C488.645 269.579 514.124 270.797 539.576 270.482C541.249 270.461 541.837 272.664 541.917 274.331C542.923 295.393 546.414 316.244 549.903 337.084C553.971 361.38 558.037 385.661 558.159 410.243C558.171 412.603 557.953 415.349 555.998 416.678C554.907 417.419 553.519 417.523 552.202 417.602ZM352.007 271.971C348.134 272.074 344.207 272.206 340.501 273.336C346.602 303.573 348.97 334.351 351.339 365.138C352.445 379.518 353.552 393.899 355.039 408.228C355.128 409.088 355.248 410.014 355.841 410.644C356.514 411.36 357.591 411.483 358.572 411.56C422.121 416.553 486.024 417.064 549.645 413.089C550.451 413.038 551.325 412.959 551.919 412.413C552.635 411.752 552.686 410.659 552.68 409.685C552.573 392.628 550.142 375.679 547.716 358.794L536.428 280.245C536.285 279.249 536.081 278.147 535.274 277.545C534.672 277.096 533.873 277.038 533.123 276.997C472.802 273.682 412.399 270.365 352.007 271.971ZM392.217 336.105C393.782 336.033 394.461 338.031 394.649 339.584C394.973 342.252 394.775 345.777 392.196 346.548C389.96 344.467 389.113 341.026 390.127 338.148C390.471 337.172 391.182 336.153 392.217 336.105ZM490.669 346.151C487.9 345.913 489.948 336.463 491.505 337.599C493.061 338.734 493.437 346.388 490.669 346.151ZM503.32 344.874C499.981 344.874 501.119 336.181 503.32 336.181C504.496 336.181 505.454 344.874 503.32 344.874ZM405.011 344.983C405.594 343.82 405.957 342.548 406.076 341.254C406.169 340.24 406.094 339.154 405.516 338.315C404.938 337.477 403.729 337.013 402.851 337.531C402.305 337.854 402 338.466 401.806 339.069C401.183 341.013 401.456 343.224 402.531 344.96C402.881 345.524 403.477 346.099 404.118 345.919C404.546 345.799 404.812 345.38 405.011 344.983ZM450.976 363.377C451.211 361.546 451.928 359.069 453.614 359.828C454.299 360.137 454.647 360.905 454.822 361.635C455.191 363.177 454.888 365.09 453.497 365.853C452.105 366.616 450.742 365.208 450.976 363.377ZM395.31 351.46C393.868 352.772 391.708 354.307 390.238 353.027C390.462 351.835 391.134 350.731 392.091 349.983C390.841 348.942 388.685 349.574 387.998 351.048C387.312 352.521 388.02 354.414 389.389 355.293C390.759 356.171 392.602 356.11 394.055 355.377C394.431 355.187 394.822 354.957 395.219 354.723L395.22 354.723C396.754 353.821 398.379 352.866 399.576 353.968C402.285 356.462 407.223 355.803 409.181 352.685C409.725 351.819 410.046 350.693 409.58 349.782C409.114 348.872 407.61 348.567 407.077 349.44C406.941 349.661 406.886 349.917 406.831 350.172L406.831 350.173C406.813 350.257 406.795 350.342 406.774 350.425C406.425 351.801 405.145 352.889 403.728 353.014C402.312 353.139 400.861 352.291 400.276 350.997C399.474 349.222 396.751 350.148 395.31 351.46ZM445.821 360.12C446.103 362.127 445.615 364.232 444.48 365.912C444.268 366.225 443.987 366.551 443.609 366.576C443.211 366.603 442.879 366.284 442.642 365.963C441.31 364.156 441.361 361.457 442.76 359.701C443.412 358.883 444.747 358.304 445.438 359.089C445.684 359.368 445.769 359.752 445.821 360.12ZM369.528 392.242C369.64 396.89 375.202 399.153 379.787 399.968C392.63 402.248 405.75 402.33 418.795 402.406C457.942 402.633 497.132 402.86 536.189 400.199C537.562 400.106 539.101 399.925 539.955 398.848C540.754 397.841 540.657 396.417 540.518 395.14C536.625 359.317 531.46 323.633 525.036 288.176C524.653 286.062 521.941 285.472 519.793 285.354C467.581 282.479 415.256 282.544 362.964 282.611C361.489 282.613 359.927 282.638 358.672 283.412C355.82 285.169 356.246 289.362 356.996 292.622C364.511 325.296 368.716 358.728 369.528 392.242ZM484.566 361.244C479.151 365.27 475.05 371.03 473.021 377.458C466.839 374.6 464.04 366.149 467.295 360.175C471.442 352.565 472.897 342.146 466.852 335.931C462.956 331.924 456.767 330.758 451.287 331.879C440.434 334.101 432.22 345.286 433.364 356.286C433.548 358.049 433.938 359.781 434.328 361.513C434.733 363.309 435.138 365.105 435.312 366.934C435.653 370.528 434.891 374.545 432.073 376.808C427.945 369.68 421.241 364.076 413.486 361.27C418.597 348.989 423.636 334.603 417.185 322.967C414.974 318.978 411.583 315.762 407.955 312.993C403.194 309.357 397.524 306.274 391.544 306.688C381.46 307.386 374.488 318.11 374.286 328.198C374.083 338.286 378.811 347.74 383.424 356.718L372.318 370.54C370.481 342.211 366.41 314.026 360.154 286.333C412.108 286.523 464.06 287.36 515.993 288.842C517.143 288.875 518.408 288.954 519.236 289.751C519.95 290.438 520.151 291.485 520.316 292.461L536.217 386.49C529.227 374.826 520.276 364.336 509.852 355.592C507.264 363.954 504.98 372.41 503.006 380.938L495.119 368.6C501.394 364.847 505.543 358.434 509.118 352.063C513.306 344.599 517.101 336.582 517.414 328.033C517.726 319.483 513.77 310.276 506 306.665C510.456 303.669 510.618 296.294 506.612 292.721C502.606 289.148 495.77 289.785 492.079 293.681C488.388 297.577 487.947 303.954 490.561 308.639C482.169 312.256 476.253 320.992 476.019 330.113C475.803 338.55 479.98 346.412 484.195 353.728C485.573 356.119 486.783 359.596 484.566 361.244ZM463.083 368.589L476.938 397.129C478.127 394.682 476.955 392.084 475.777 389.471C475.294 388.401 474.81 387.328 474.487 386.262C472.113 378.434 478.612 370.949 484.563 365.327C485.505 364.437 486.669 363.478 487.941 363.733C488.973 363.94 489.668 364.882 490.259 365.752C494.55 372.069 498.914 378.54 500.897 385.911C500.907 385.949 500.918 385.987 500.928 386.026C501.211 387.082 501.515 388.215 502.376 388.883C503.267 389.574 504.943 389.255 505.045 388.132C505.954 378.174 508.132 368.332 511.51 358.918L534.041 387.762C535.616 389.778 537.282 392.305 536.384 394.7C535.324 397.53 531.588 398.015 528.56 398.037L430.475 398.722C414.024 398.837 397.515 398.949 381.194 396.888C379.486 396.672 377.682 396.391 376.362 395.287C375.179 394.297 374.569 392.793 374.122 391.318C371.969 384.21 372.687 376.279 376.081 369.671C377.669 366.579 380.039 363.617 383.368 362.603C386.697 361.588 390.985 363.352 391.62 366.768C392.545 371.744 396.805 376.147 401.865 376.47C406.924 376.793 411.999 372.305 411.603 367.26C411.445 365.251 414.655 365.274 416.377 366.325C425.669 371.995 430.452 384.127 427.525 394.597C427.041 396.327 430.042 397.152 431.237 395.81C432.356 394.553 432.275 392.702 432.199 390.999C432.194 390.883 432.189 390.768 432.184 390.654C431.917 384.118 434.031 377.512 438.043 372.341C439.473 373.302 440.545 374.738 441.605 376.157C443.023 378.057 444.421 379.929 446.627 380.6C450.055 381.642 453.552 379.141 455.807 376.362C456.353 375.689 456.875 374.983 457.398 374.277C459.034 372.066 460.677 369.846 463.083 368.589ZM391.642 321.551C388.603 327.787 384.202 333.356 378.835 337.758C377.822 333.176 377.573 328.426 378.1 323.764C378.505 320.187 379.451 316.493 381.899 313.85C385.059 310.439 390.235 309.451 394.795 310.383C399.354 311.315 403.401 313.895 407.076 316.746C410.169 319.145 413.145 321.848 414.994 325.295C419.161 333.062 416.762 342.56 414.274 351.013C412.748 356.201 410.713 361.995 405.77 364.207C401.487 366.124 396.384 364.586 392.456 362.019C385.947 357.765 381.371 350.676 380.18 343C379.985 341.742 379.982 340.22 381.02 339.479C385.936 335.967 389.992 331.265 392.742 325.892C397.384 332.268 405.353 336.082 413.241 335.703C414.932 335.622 417.183 334.421 416.448 332.898C406.958 333.888 397.088 329.373 391.642 321.551ZM491.733 361.416C488.261 356.29 485.267 350.842 482.803 345.164C482.19 343.749 481.752 341.787 483.035 340.929C489.253 336.772 493.964 330.418 496.129 323.267L500.645 328.903C502.106 330.726 503.599 332.579 505.542 333.877C507.486 335.175 509.988 335.854 512.201 335.097C513.021 334.816 513.238 336.206 512.936 337.018C509.501 346.248 504.557 354.917 498.359 362.577C497.815 363.249 497.217 363.944 496.395 364.213C494.538 364.822 492.828 363.031 491.733 361.416ZM498.883 309.699C501.095 309.475 503.401 309.567 505.433 310.467C507.222 311.259 508.699 312.634 509.912 314.167C513.543 318.757 514.973 325.008 513.697 330.717C513.592 331.189 513.455 331.682 513.105 332.017C512.547 332.552 511.659 332.499 510.901 332.339C506.503 331.409 502.899 328.073 500.718 324.149C500.609 323.954 500.503 323.756 500.396 323.558C499.754 322.367 499.099 321.15 497.979 320.418C496.673 319.563 494.49 319.851 494.066 321.351C492.046 328.503 487.39 334.881 481.19 338.993C479.807 337.54 479.172 335.527 478.89 333.543C478.075 327.812 479.979 321.802 483.763 317.417C487.548 313.031 493.114 310.285 498.883 309.699ZM456.145 335.367C461.348 336.023 466.131 340.092 466.957 345.262C467.338 347.652 466.913 350.088 466.489 352.47C466.29 353.586 466.044 354.789 465.196 355.541C464.154 356.465 462.575 356.387 461.21 356.105C457.326 355.302 453.71 353.252 451.03 350.333C450.868 350.156 450.708 349.976 450.548 349.795C449.838 348.993 449.122 348.185 448.181 347.689C447.027 347.082 445.389 347.126 444.636 348.189C442.524 351.174 439.719 353.668 436.505 355.418C436.887 350.197 438.653 344.966 442.136 341.053C445.619 337.139 450.942 334.71 456.145 335.367ZM445.914 351.8C446.579 350.534 448.451 351.689 449.387 352.77C453.071 357.024 458.749 359.48 464.379 359.254C461.458 365.107 457.449 370.416 452.616 374.829C451.458 375.886 450.071 376.956 448.507 376.826C447.14 376.712 446.031 375.708 445.1 374.704C442.211 371.59 439.906 367.938 438.34 363.992C437.721 362.432 437.394 360.283 438.823 359.401C441.809 357.558 444.285 354.903 445.914 351.8ZM499.2 306.82C495.818 307.397 492.056 304.564 492.293 301.147C492.458 298.757 494.333 296.803 496.411 295.604C497.921 294.733 499.658 294.132 501.393 294.314C503.128 294.495 504.834 295.591 505.373 297.247C505.617 297.999 505.613 298.81 505.515 299.594C505.091 302.993 502.583 306.244 499.2 306.82ZM396.162 366.884C400.425 368.622 405.529 368.132 409.383 365.616C409.617 366.654 409.032 367.682 408.471 368.587C406.67 371.486 403.837 374.814 400.563 373.837C398.843 373.324 397.802 371.808 396.75 370.275C395.821 368.922 394.884 367.556 393.462 366.857C394.087 366.12 395.266 366.518 396.162 366.884Z" fill="#612500"/>
</svg>
