<svg width="466" height="340" viewBox="0 0 466 340" fill="none" xmlns="http://www.w3.org/2000/svg">
<path fill-rule="evenodd" clip-rule="evenodd" d="M465.265 128.642C459.496 171.729 452.985 194.488 414.979 239.611C376.974 284.733 203.057 314.417 138.76 314.417C74.4629 314.417 -4.77565 264.749 0.225331 207.199C5.22631 149.65 31.3172 102.614 93.7667 96.8236C157.587 90.9062 213.647 118.309 276.304 103.612C330.473 90.9062 347.047 42.4757 384.252 27.1961C459.496 -3.70582 469.189 99.3295 465.265 128.642Z" fill="#FAAD14"/>
<path d="M426.554 149.685C424.429 153.295 397.518 171.56 381.194 174.263C378.035 174.786 374.586 174.966 371.842 173.314C370.221 172.338 369.013 170.815 367.866 169.309C365.242 165.866 362.74 162.33 360.364 158.711C359.116 156.809 357.878 154.823 357.453 152.587C356.33 146.665 361.095 141.346 365.804 137.594C376.629 128.969 389.304 122.685 402.715 119.295C405.089 118.695 407.607 118.187 409.959 118.869C413.776 119.975 416.058 123.844 417.515 127.548C418.971 131.252 420.107 135.303 423.018 138.013C423.683 138.632 428.68 146.076 426.554 149.685Z" fill="white"/>
<path fill-rule="evenodd" clip-rule="evenodd" d="M281.954 307.044C255.836 311.518 268.284 292.502 271.886 268.7C277.804 229.59 285.103 170.156 285.103 170.156C285.103 170.156 289.862 260.72 289.862 282.771C289.862 304.823 285.102 306.505 281.954 307.044Z" fill="white"/>
<path d="M254.048 285.497C254.714 291.795 255.417 298.226 258.089 303.966C256.631 290.968 255.173 277.971 253.716 264.973C253.536 263.368 253.589 261.325 255.063 260.67C256.31 275.347 258.17 289.972 260.635 304.493C260.927 306.217 258.343 307.202 256.891 306.231C255.439 305.26 254.975 303.369 254.645 301.652C252.239 289.139 250.916 276.417 250.696 263.676C247.634 264.28 245.486 267.254 244.866 270.319C244.247 273.384 244.844 276.549 245.441 279.619C247.361 289.499 249.282 299.379 251.203 309.259C252.101 313.88 253 318.655 252.008 323.258C248.196 305.822 245.131 288.222 242.825 270.523C213.575 288.442 175.886 291.774 143.956 279.264C136.982 276.532 130.056 272.912 125.45 266.997C121.822 262.338 119.886 256.554 118.871 250.733C115.269 230.058 122.651 208.97 132.671 190.539C136.473 183.546 140.803 176.262 140.496 168.305C140.39 165.565 139.801 162.532 141.397 160.306C141.624 160.718 130.943 84.1813 135.228 67.2516C145.542 26.4948 179.05 20.9751 200.504 21.4779C214.899 21.8152 306.142 39.9807 319.325 64.6838C336.651 97.1507 332.973 124.447 329.896 142.446C328.979 147.805 285.115 169.761 285.103 169.872C282.595 193.227 265.766 244.115 251.652 262.873C252.451 270.414 253.249 277.956 254.048 285.497Z" fill="white"/>
<path fill-rule="evenodd" clip-rule="evenodd" d="M43.4349 190.469C35.2087 187.18 25.4056 188.155 17.9891 193.002C17.2711 193.471 16.2389 192.948 15.8834 192.167C15.528 191.387 15.6609 190.479 15.8427 189.64C18.2114 178.72 27.6475 170.365 38.1412 166.525C48.6349 162.685 60.1133 162.675 71.2682 163.331C72.3751 163.396 73.5319 163.483 74.4761 164.064C75.4202 164.645 76.0555 165.888 75.5849 166.892C71.1968 176.253 67.8913 186.121 65.7553 196.236C65.4089 197.876 63.7124 198.964 62.0415 199.101C60.3707 199.238 58.7335 198.62 57.2172 197.905C52.4916 195.677 48.286 192.409 43.4349 190.469Z" fill="white"/>
<path fill-rule="evenodd" clip-rule="evenodd" d="M296.284 25.6222C296.693 19.3581 296.221 13.0369 294.888 6.90309L294.86 6.7724L294.86 6.77228C294.634 5.73515 294.401 4.66836 294.609 3.6304C295.071 1.33479 297.616 -0.0469724 299.953 0.00122065C302.29 0.0494137 304.454 1.16697 306.522 2.25835C316.44 7.49224 326.536 12.8582 334.345 20.9151C334.59 27.4377 333.055 33.8745 331.541 40.2288L331.398 40.826C325.075 67.3845 319.896 94.2166 315.883 121.222C315.498 123.811 314.768 126.864 312.318 127.771C310.56 128.421 308.516 127.59 307.267 126.19C306.018 124.791 305.421 122.932 305.005 121.102C303.977 116.586 303.853 111.866 304.643 107.302C305.126 104.511 305.942 101.796 306.759 99.0807C307.492 96.6429 308.225 94.2044 308.717 91.7097C309.209 89.2152 309.457 86.6796 309.698 84.1482C310.978 70.6875 312.064 57.2081 312.955 43.7159C313.081 41.8093 313.195 39.8428 312.572 38.037C311.463 34.8251 308.233 32.7951 304.97 31.8643C304.408 31.7039 303.837 31.5674 303.266 31.431L303.265 31.431C301.936 31.1135 300.608 30.7962 299.395 30.1772C297.661 29.2924 296.158 27.5672 296.284 25.6222ZM302.344 25.1074C306.956 26.0824 311.463 27.5546 315.762 29.4904C316.628 29.8802 317.538 30.3365 318.006 31.1637C318.388 31.8394 318.41 32.6532 318.421 33.4296C318.556 42.5488 318.585 51.6921 317.621 60.761C317.044 66.1915 316.113 71.5746 315.182 76.9572L315.181 76.9607L315.181 76.9642L315.18 76.9678L315.179 76.9713L315.179 76.9748L315.179 76.976L315.178 76.9772C314.885 78.6742 314.591 80.3712 314.309 82.0697C312.906 90.5074 311.777 98.9907 310.924 107.502C310.306 113.677 309.853 120.06 311.77 125.962C312.754 125.782 313.132 124.595 313.319 123.61L331.039 30.0412C331.469 27.7741 331.897 25.4302 331.392 23.179C330.506 19.2378 327.014 16.4973 323.647 14.2737C317.166 9.99311 310.267 6.34737 303.081 3.40535C302.483 10.6216 302.237 17.8672 302.344 25.1074ZM311.457 86.5591C314.701 69.8723 316.167 52.839 315.821 35.8421C315.795 34.5584 315.726 33.1788 314.943 32.1629C314.368 31.4184 313.491 30.9824 312.634 30.5978C309.415 29.1533 306.03 28.0785 302.569 27.4011C301.567 27.205 300.094 27.4175 300.138 28.4393L312.58 33.5901C313.31 33.8922 314.088 34.2339 314.5 34.9085C314.904 35.5702 314.865 36.4014 314.812 37.1755L311.457 86.5591ZM299.878 1.75467C298.853 1.07343 297.37 1.77566 296.799 2.86762C296.228 3.95958 296.315 5.2668 296.444 6.49284C296.634 8.2917 296.884 10.0915 297.134 11.8916C297.829 16.8856 298.523 21.8816 297.933 26.8653C298.874 27.1888 299.924 26.5244 300.381 25.6388C300.837 24.7533 300.849 23.7131 300.851 22.7164L300.882 4.74466C300.884 3.64628 300.792 2.36158 299.878 1.75467ZM309.092 125.556C308.527 121.115 308.379 116.62 308.65 112.151C308.795 109.763 309.06 107.383 309.324 105.003L309.324 105.003L309.324 105.002L309.325 105.002L309.325 105.001L309.325 105.001L309.325 105L309.325 105C309.675 101.851 310.025 98.7036 310.098 95.5383C307.513 103.244 306.538 111.487 307.251 119.584C307.437 121.69 307.781 123.899 309.092 125.556ZM310.513 90.9867C310.929 90.7999 311.104 90.2148 310.859 89.8301C310.436 90.0386 310.257 90.6292 310.492 91.0381L310.513 90.9867ZM306.65 52.3947C286.084 39.6887 262.829 32.076 239.573 25.5071C232.139 23.4072 224.643 21.3951 216.967 20.5336C194.223 17.981 171.165 25.8424 152.254 38.7549C144.669 43.9335 137.351 50.3035 134.074 58.8926C131.643 65.2655 131.66 72.2813 131.894 79.0997C132.703 102.616 135.715 125.993 138.724 149.329C141.076 148.904 141.308 145.645 140.967 143.275C137.839 121.513 136.085 99.552 135.719 77.568C135.617 71.4034 135.649 65.0834 137.779 59.2989C141.633 48.8275 151.576 41.9793 161.332 36.5899C173.62 29.8018 186.977 24.0956 201.006 23.7927C217.999 23.4258 234.107 30.9773 248.952 39.2708C257.228 43.8945 265.619 49.0577 270.884 56.9507C275.665 64.1176 277.402 72.8521 278.656 81.3798C282.638 108.446 282.783 135.912 282.922 163.27C282.927 164.376 282.86 165.645 281.994 166.333C281.403 166.803 280.594 166.862 279.84 166.901L252.116 168.347C265.035 172.068 279.366 170.6 291.266 164.337L322.071 148.125C324.946 146.612 327.914 145.023 329.896 142.445C332.623 138.898 333.013 134.126 333.142 129.65C333.617 113.12 331.967 96.5295 328.246 80.4181C329.536 97.8468 329.715 115.358 328.781 132.809C328.622 135.789 328.383 138.916 326.766 141.422C325.038 144.099 322.034 145.615 319.172 147.009L285.927 163.196C287.303 137.319 286.235 111.312 282.744 85.6354C281.57 76.9993 280.072 68.2424 276.127 60.4741C266.804 42.1159 246.168 33.0347 227.096 25.3397C255.61 33.6967 284.449 42.1918 310.101 57.2047C310.435 55.1306 308.435 53.4975 306.65 52.3947ZM412.895 131.385C414.373 135.201 416.451 139.269 420.271 140.724C421.175 140.794 421.716 139.592 421.419 138.733C421.171 138.015 420.588 137.493 420.015 136.98C419.902 136.878 419.789 136.777 419.68 136.676C417.249 134.413 416.056 131.216 414.881 128.066L414.881 128.066L414.881 128.066L414.881 128.066L414.881 128.066L414.881 128.065L414.88 128.065C414.648 127.443 414.417 126.822 414.176 126.211C412.72 122.507 410.437 118.638 406.62 117.531C404.268 116.85 401.751 117.358 399.377 117.958C385.966 121.348 373.291 127.631 362.466 136.256C357.757 140.009 352.992 145.328 354.115 151.25C354.539 153.486 355.777 155.471 357.026 157.373C359.401 160.993 361.904 164.528 364.527 167.972C365.675 169.478 366.883 171 368.504 171.976C371.248 173.628 374.697 173.449 377.856 172.926C394.18 170.223 408.151 160.06 421.446 150.193C422.138 149.679 422.857 149.132 423.216 148.348C423.574 147.564 423.421 146.473 422.661 146.068C421.789 145.603 420.761 146.244 419.984 146.854C407.612 156.557 394.397 166.039 379.057 169.448C376.149 170.094 372.944 170.475 370.328 169.048C368.371 167.981 367.049 166.062 365.801 164.213L358.062 152.742C357.41 151.776 356.735 150.738 356.711 149.572C356.686 148.406 357.627 147.145 358.781 147.296C369.628 148.709 380.527 149.725 391.448 150.34C392.317 150.39 393.226 150.429 394.019 150.066C395.039 149.6 395.661 148.566 396.205 147.583C400.829 139.233 404.361 130.278 406.682 121.017C409.768 123.234 411.208 126.988 412.582 130.571L412.583 130.574C412.654 130.76 412.726 130.946 412.797 131.131L412.895 131.385ZM403.348 120.284C401.282 128.029 398.224 135.508 394.275 142.481C393.613 143.649 392.878 144.853 391.72 145.532C390.247 146.396 388.415 146.233 386.718 146.044L359.699 143.023C364.182 137.089 370.841 133.238 377.495 129.928C383.794 126.796 390.26 124.001 396.856 121.561C398.945 120.789 401.135 120.04 403.348 120.284ZM254.048 285.497C254.714 291.795 255.417 298.226 258.089 303.966L253.716 264.973C253.536 263.368 253.589 261.325 255.063 260.67C256.31 275.347 258.17 289.971 260.635 304.493C260.927 306.217 258.343 307.202 256.891 306.231C255.439 305.26 254.975 303.369 254.645 301.652C252.239 289.139 250.916 276.417 250.696 263.675C247.634 264.28 245.486 267.254 244.866 270.319C244.247 273.384 244.844 276.549 245.441 279.619L251.203 309.259C252.101 313.88 253 318.655 252.008 323.257C248.196 305.822 245.131 288.222 242.825 270.523C213.575 288.441 175.886 291.773 143.956 279.264C136.982 276.532 130.056 272.911 125.45 266.997C121.822 262.338 119.886 256.554 118.871 250.732C115.269 230.058 122.651 208.97 132.671 190.539C132.929 190.063 133.191 189.586 133.453 189.108L133.453 189.107L133.459 189.096L133.46 189.094C137.045 182.542 140.782 175.716 140.496 168.305C140.477 167.815 140.443 167.316 140.408 166.814C140.249 164.507 140.086 162.134 141.397 160.305C143.157 163.511 143.827 167.305 143.272 170.921C173.554 169.615 203.88 169.352 234.179 170.132C234.533 171.528 232.515 172.176 231.078 172.155C202.802 171.732 174.512 172.215 146.267 173.601C145.372 173.645 144.433 173.704 143.675 174.181C142.877 174.683 142.412 175.563 141.984 176.404C133.967 192.117 125.925 208.059 122.05 225.273C120.057 234.126 119.294 243.814 123.378 251.914C124.927 254.987 127.119 257.701 129.565 260.119C142.7 273.097 162.368 277.076 180.814 276.765C192.587 276.567 204.334 274.872 215.684 271.733C227.716 268.405 239.717 263.16 247.93 253.742C252.753 248.212 256.031 241.515 258.902 234.758C264.383 221.856 268.588 208.41 271.434 194.681C273.216 195.057 273.241 197.581 272.829 199.358C267.742 221.346 261.829 244.782 245.072 259.869C229.938 273.495 208.611 277.72 188.295 278.86C176.559 279.519 164.639 279.313 153.272 276.316C141.905 273.319 131.051 267.323 123.835 258.029C125.94 266.068 133.069 271.806 140.492 275.519C159.98 285.267 182.993 284.752 204.512 281.363C218.846 279.106 233.559 275.401 244.715 266.105C254.25 258.159 260.327 246.811 264.901 235.261C269.964 222.477 273.477 209.077 275.336 195.45C276.494 194.717 277.352 196.767 277.206 198.131C274.698 221.486 265.766 244.115 251.652 262.872L254.048 285.497ZM240.495 325.433C239.251 323.33 238.451 320.965 238.16 318.538L236.374 324.603L231.865 307.377C231.515 306.04 230.664 304.368 229.315 304.655C228.004 304.935 227.857 306.737 228.052 308.066C229.034 314.749 230.908 321.299 233.607 327.489L228.812 323.274C228.579 325.281 229.106 327.367 230.264 329.02C227.767 327.178 224.417 326.55 221.423 327.363C223.562 330.341 226.467 332.762 229.778 334.327L225.727 328.662C229.002 330.556 232.433 332.179 235.973 333.509L232.541 329.196L236.782 330.374C233.537 322.977 230.23 315.298 230.309 307.219C231.537 313.791 233.336 320.257 235.677 326.519C236.074 327.58 236.515 328.677 237.36 329.43C238.205 330.183 239.579 330.467 240.464 329.762C241.153 329.214 241.354 328.269 241.51 327.402L243.42 316.788L245.518 329.951C247.109 325.925 252.283 324.916 256.605 324.889C262.313 324.853 268.062 325.483 273.797 326.111L273.798 326.111C284.136 327.244 294.426 328.371 304.331 325.585C304.04 327.12 303.532 328.612 302.825 330.004C310.818 328.839 318.905 328.327 326.981 328.476C330.392 328.539 333.814 328.719 337.236 328.899C346.279 329.374 355.323 329.85 364.184 328.168L305.375 327.65C306.48 327.586 307.326 326.299 306.95 325.257C306.573 324.215 305.101 323.769 304.211 324.427C303.633 322.585 301.033 321.766 299.506 322.945C300.391 320.211 302.142 317.765 304.442 316.048C301.846 315.909 299.209 316.705 297.122 318.259L303.447 288.931C302.912 288.471 302.02 288.78 301.625 289.366C301.234 289.945 301.19 290.683 301.149 291.382L301.148 291.404C300.555 301.418 297.03 311.241 291.122 319.341L288.802 312.616L285.477 320.649C283.97 319.479 281.832 319.184 280.066 319.902C280.517 321.619 281.888 323.064 283.578 323.602L284.365 321.49L289.559 324.975C287.574 322.891 287.144 319.481 288.549 316.967L291.693 322.25L297.786 310.177C297.82 315.024 295.746 319.606 293.714 324.005C295.923 322.272 297.822 320.143 299.294 317.749C300.715 320.27 299.163 323.649 296.692 325.15C294.221 326.65 291.165 326.731 288.278 326.609C283.873 326.423 279.435 325.868 275.002 325.315C265.047 324.072 255.119 322.832 245.663 325.768L244.299 313.173C242.216 316.943 240.913 321.144 240.495 325.433ZM299.827 325.77C299.613 325.514 299.615 325.104 299.83 324.849L300.002 324.914C300.29 324.222 301.505 324.279 301.728 324.995C301.168 325.4 300.51 325.668 299.827 325.77ZM331.956 191.943C325.107 188.475 316.956 189.411 309.353 190.455C307.205 190.75 305.015 191.06 303.069 192.018C301.123 192.976 299.428 194.712 299.092 196.858C280.524 194.535 262.731 186.348 248.874 173.75C245.866 171.016 242.798 167.123 244.15 163.286C244.575 162.08 245.402 161.063 246.263 160.118C252.723 153.022 261.63 148.755 270.302 144.658C260.474 145.522 251.044 150.31 244.54 157.741C243.049 159.444 241.675 161.346 241.161 163.552C239.894 168.999 244.117 174.108 248.343 177.763C261.828 189.422 278.79 196.993 296.461 199.242C297.52 199.377 297.575 200.869 297.478 201.935C297.048 206.676 299.627 211.302 303.202 214.437C306.777 217.572 311.255 219.455 315.698 221.141C329.459 226.363 343.739 230.208 358.259 232.602C359.218 232.761 360.535 232.686 360.737 231.733C357.387 229.513 353.354 228.667 349.411 227.839C349.198 227.795 348.985 227.75 348.773 227.705C338.775 225.597 328.912 222.851 319.262 219.489C315.303 218.11 311.335 216.604 307.883 214.222C304.431 211.84 301.5 208.476 300.396 204.425C299.851 202.425 300.591 199.439 302.645 199.691C311.01 200.716 319.605 201.728 327.773 199.649C329.622 199.179 331.549 198.469 332.675 196.928C333.802 195.386 333.658 192.805 331.956 191.943ZM310.855 197.481C307.984 196.986 305.05 196.853 302.146 197.088C303.557 194.402 307.004 193.695 310.006 193.286C316.53 192.396 323.324 191.528 329.575 193.6C329.988 193.737 330.429 193.911 330.652 194.285C330.946 194.778 330.732 195.447 330.314 195.84C329.896 196.232 329.326 196.41 328.775 196.564C322.967 198.19 316.798 198.506 310.855 197.481ZM215.835 332.963C220.641 332.828 225.475 333.892 229.782 336.033C228.631 337.69 226.317 337.922 224.303 337.999L171.663 340C171.181 339.94 171.09 339.194 171.432 338.848C171.773 338.501 172.308 338.457 172.793 338.433L224.18 335.922C221.211 335.649 218.314 334.622 215.835 332.963ZM114.531 158.559C113.781 162.153 116.816 165.988 120.471 166.259C114.494 175.283 103.728 179.736 93.383 182.88C86.9267 184.842 79.7649 186.453 73.6099 183.685C72.8461 184.152 73.6606 185.303 74.467 185.693C80.4567 188.584 87.5581 186.973 93.9292 185.068C103.273 182.275 112.904 178.665 119.261 171.259C119.519 170.958 119.776 170.649 120.035 170.337L120.037 170.335L120.041 170.33L120.042 170.329L120.042 170.328C121.679 168.358 123.385 166.304 125.845 165.848C133.766 164.38 140.363 159.41 146.882 154.499L146.882 154.499C148.361 153.385 149.835 152.275 151.32 151.208C160.346 144.728 170.356 139.627 180.899 136.135C181.83 135.827 182.963 135.254 182.88 134.275C169.808 135.477 158.383 143.286 147.847 151.131L147.496 151.392C140.336 156.725 132.853 162.297 124.043 163.619C126.921 161.345 126.314 156.091 123.067 154.387C119.82 152.684 115.281 154.965 114.531 158.559ZM116.97 160.755C116.383 159.012 117.29 156.938 118.901 156.055C119.359 155.804 119.87 155.637 120.392 155.637C122.113 155.635 123.37 157.479 123.381 159.203C123.392 160.927 122.52 162.517 121.672 164.018C119.689 163.713 117.612 162.66 116.97 160.755ZM312.571 122.339C312.083 121.795 312.233 121.063 312.388 120.305C312.498 119.769 312.61 119.22 312.502 118.716C312.409 118.278 312.154 117.905 311.898 117.531L311.898 117.531C311.672 117.2 311.445 116.869 311.329 116.49C311.356 115.99 312.023 115.733 312.479 115.941C312.934 116.148 313.188 116.638 313.347 117.113C313.927 118.846 313.629 120.85 312.571 122.339ZM268.505 84.302C269.723 81.4092 272.138 78.8438 275.216 78.2566C276.213 78.0666 276.182 76.4211 275.309 75.9038C274.436 75.3865 273.315 75.6923 272.399 76.129C268.133 78.1629 265.44 82.6401 264.385 87.253C263.33 91.8659 263.679 96.67 264.034 101.389L265.92 126.473C265.984 127.326 266.062 128.222 266.536 128.933C267.501 130.382 269.572 130.427 271.308 130.317L280.092 129.758C278.14 128.225 275.519 127.58 273.08 128.031C271.656 128.295 270.225 127.354 269.47 126.115C268.716 124.877 268.495 123.394 268.307 121.956C267.083 112.542 266.634 103.027 266.966 93.5388C267.076 90.4011 267.287 87.1948 268.505 84.302ZM290.934 306.955C290.435 307.318 289.935 306.492 289.862 305.879C286.467 277.293 285.955 248.452 285.447 219.669L285.105 200.265C285.095 199.712 285.103 199.107 285.457 198.683C286.068 197.954 287.352 198.288 287.885 199.076C288.418 199.863 288.419 200.884 288.401 201.835C287.878 230.159 288.222 258.538 290.929 286.737C290.961 287.067 290.993 287.398 291.025 287.729L291.028 287.766C291.649 294.172 292.279 300.674 290.934 306.955ZM262.711 126.767C261.967 126.357 261.05 126.589 260.237 126.83C222.603 137.981 185.055 149.478 148.06 162.601C147.368 162.847 146.576 163.201 146.417 163.919C146.249 164.68 146.964 165.407 147.729 165.548C148.494 165.689 149.268 165.415 149.998 165.146C187.073 151.483 224.706 139.34 262.771 128.757C263.588 128.53 263.455 127.176 262.711 126.767Z" fill="#612500"/>
<path fill-rule="evenodd" clip-rule="evenodd" d="M396.797 297.336C395.92 297.721 394.972 298.08 394.029 297.918C393.085 297.755 392.203 296.868 392.393 295.928C394.125 287.336 391.95 278.032 386.59 271.104C384.712 268.675 382.476 266.539 380.645 264.074C379.492 262.521 378.466 260.568 379.051 258.723C379.883 256.098 383.235 255.459 385.978 255.272C392.355 254.836 398.732 254.401 405.11 253.965C408.048 253.765 411.432 253.735 413.394 255.936C418.854 262.063 429.496 262.474 435.411 256.787C436.327 255.907 437.48 257.659 437.443 258.929C437.329 262.924 435.686 266.856 432.924 269.74C432.273 270.421 431.44 271.087 430.504 270.99C429.568 270.892 428.877 269.546 429.624 268.971C431.225 267.739 432.856 266.476 433.979 264.795C435.101 263.113 435.646 260.909 434.88 259.038C430.761 264.258 426.602 269.448 422.404 274.606C415.126 283.548 407.342 292.695 396.797 297.336ZM408.299 271.021C407.252 271.311 406.134 271.088 405.088 270.792C397.561 268.661 390.627 262.77 382.928 264.149C391.905 271.392 396.672 283.537 395.023 294.966C400.938 293.697 405.609 289.273 409.799 284.901C415.999 278.431 421.887 271.66 427.435 264.619C423.448 264.586 419.475 263.434 416.087 261.327C411.902 262.365 412.455 269.869 408.299 271.021ZM413.765 259.124C411.272 256.18 406.791 256.271 402.951 256.609C397.943 257.049 392.935 257.49 387.926 257.931C385.893 258.11 383.558 258.467 382.498 260.215C391.166 262.032 399.617 264.888 407.614 268.7C408.642 265.464 410.703 262.566 413.421 260.535C413.727 260.307 414.077 260.014 414.036 259.634C414.015 259.44 413.892 259.274 413.765 259.124Z" fill="#612500"/>
<path fill-rule="evenodd" clip-rule="evenodd" d="M42.4643 188.904C34.921 185.882 25.9316 186.778 19.1308 191.231C18.4724 191.662 17.5258 191.181 17.1998 190.464C16.8739 189.747 16.9958 188.913 17.1625 188.143C19.3346 178.111 27.9873 170.435 37.61 166.908C47.2326 163.38 57.7582 163.37 67.9871 163.973C69.0021 164.033 70.0629 164.113 70.9287 164.647C71.7945 165.181 72.377 166.323 71.9454 167.245C67.9216 175.844 64.8905 184.909 62.9318 194.202C62.6142 195.709 61.0585 196.708 59.5263 196.834C57.9942 196.96 56.4929 196.392 55.1025 195.735C50.7691 193.688 46.9127 190.686 42.4643 188.904ZM43.3268 178.754C42.6545 179.301 41.6037 179.012 40.9712 178.419C40.3386 177.826 39.9781 177.006 39.4809 176.295C36.8137 172.484 30.6932 172.8 27.0652 175.708C23.4372 178.616 21.6817 183.211 20.083 187.582C30.7266 182.951 43.836 184.613 52.9923 191.754C54.2424 192.729 55.4828 193.828 57.0223 194.203C58.5617 194.579 60.501 193.904 60.8909 192.366C62.974 184.147 65.541 176.052 68.574 168.136C62.7543 175.383 50.5325 172.889 43.3268 178.754ZM41.0106 174.374C41.6083 175.126 42.6935 175.326 43.6382 175.156C44.5829 174.986 45.4411 174.515 46.3213 174.132C49.3518 172.812 52.7083 172.518 55.9573 171.914C59.2063 171.311 62.5574 170.29 64.8446 167.9C59.6842 167.885 54.5237 167.869 49.3632 167.854C44.1772 167.838 38.5886 167.948 34.4224 171.042C36.9586 171.135 39.4301 172.385 41.0106 174.374Z" fill="#612500"/>
<path fill-rule="evenodd" clip-rule="evenodd" d="M284.815 188.211C284.802 183.664 284.79 179.117 284.778 174.569C284.775 173.264 284.771 171.958 284.768 170.652C284.765 169.751 284.916 168.624 285.77 168.344C286.416 168.133 287.128 168.598 287.43 169.208C287.732 169.818 287.728 170.529 287.718 171.21C287.624 177.556 287.53 183.902 287.435 190.247C287.422 191.16 287.269 192.283 286.416 192.603C284.994 191.796 284.819 189.849 284.815 188.211H284.815Z" fill="#612500"/>
<path fill-rule="evenodd" clip-rule="evenodd" d="M275.752 184.002C275.095 184.291 274.757 183.207 274.858 182.495C275.221 179.949 275.586 177.397 276.204 174.901C276.589 173.346 277.144 171.711 278.425 170.754C279.707 169.796 281.907 169.964 282.534 171.437C282.838 172.15 282.711 172.966 282.572 173.729C281.709 178.453 280.547 183.122 279.095 187.698C279.034 187.893 278.966 188.095 278.819 188.236C278.462 188.579 277.818 188.348 277.57 187.919C277.322 187.49 277.355 186.96 277.394 186.466C277.984 186.423 278.259 185.728 278.401 185.152C278.98 182.802 279.558 180.452 280.137 178.102C280.587 176.274 280.998 174.191 279.95 172.628C278.874 173.292 278.469 174.635 278.149 175.86C277.505 178.324 276.86 180.789 276.216 183.253C276.139 183.548 276.031 183.88 275.752 184.002L275.752 184.002Z" fill="#612500"/>
</svg>
