<svg width="394" height="395" viewBox="0 0 394 395" fill="none" xmlns="http://www.w3.org/2000/svg">
<path fill-rule="evenodd" clip-rule="evenodd" d="M129.719 85.3781C126.439 70.5115 135.377 45.8339 151.346 35.9116C167.316 25.9893 187.742 25.3096 205.528 31.2019C204.96 13.6826 222.385 -1.35087 239.516 0.0965587C256.648 1.54398 270.863 17.2278 273.164 34.5988C274.958 48.1339 268.144 64.2561 254.967 66.7077C259.625 83.6774 262.215 101.532 259.658 118.96C257.101 136.388 248.968 153.412 235.241 164.118C231.451 169.316 234.314 177.157 239.303 181.166C244.292 185.175 250.749 186.584 256.719 188.796C281.734 198.067 299.345 223.231 303.451 250.046C307.556 276.86 299.356 304.669 284.538 327.213C274.388 342.654 260.58 356.368 243.306 362.306C219.058 370.641 192.473 362.526 168.928 352.309C159.953 348.414 150.813 343.988 144.478 336.426C137.686 328.319 124.849 332.697 115.592 337.656C121.747 340.26 127.903 342.864 134.058 345.468C135.38 346.028 136.815 346.693 137.429 348.012C138.72 350.789 135.539 353.462 132.847 354.844C129.954 356.33 127.061 357.815 124.168 359.301C106.411 368.419 87.9167 377.735 68.0425 378.298C46.3139 378.914 25.789 369.011 6.23375 359.332C4.06014 358.257 1.7561 357.059 0.574226 354.91C-0.607645 352.762 0.0529906 349.411 2.3888 348.781C24.3265 342.865 45.0963 332.482 63.1183 318.422C61.7397 309.669 62.0646 300.641 64.0687 292.015C64.3586 290.768 64.7755 289.4 65.8659 288.761C68.5465 287.191 70.875 291.327 71.3486 294.443C72.5442 302.306 73.7398 310.169 74.9353 318.033C89.2914 316.413 103.225 311.036 115.034 302.557C105.823 294.993 96.6122 287.429 87.4011 279.865C82.0863 275.5 76.9563 272.89 74.0859 264.344C72.1724 258.646 73.7168 252.794 78.7192 246.786C73.1349 218.409 70.6915 197.017 71.3889 182.612C71.5751 178.767 71.9971 174.616 74.5353 171.766C79.0157 166.735 87.8131 168.904 91.9026 174.27C95.9921 179.636 96.6765 186.836 97.2053 193.611C112.777 191.671 128.348 189.731 143.919 187.791C149.616 187.081 155.515 186.388 160.999 188.117C167.878 190.286 173.403 196.429 174.928 203.605C181.498 201.794 188.655 199.564 192.366 193.746C196.076 187.928 192.933 177.808 186.133 178.108C164.862 179.047 144.06 162.952 139.218 141.811C137.987 136.434 137.509 130.459 133.807 126.429C127.941 120.043 123.471 111.811 123.5 103.061C123.529 94.3118 127.124 93.2678 129.719 85.3781ZM2.74833 354.642C3.22725 355.372 4.06313 355.754 4.85482 356.099C12.9776 359.644 21.1003 363.189 29.223 366.733C32.919 368.346 36.627 369.964 40.4921 371.091C51.2714 374.236 62.8868 373.469 73.6043 376.826C74.9043 377.234 76.2997 376.813 77.5941 376.388C86.9416 373.318 96.1792 369.9 105.282 366.143C114.806 362.212 124.244 357.876 132.699 351.925C133.469 351.384 134.267 350.782 134.618 349.899C134.969 349.015 134.646 347.787 133.746 347.527C128.04 345.874 122.416 343.924 116.904 341.688C115.132 340.97 113.137 339.945 112.761 338.038C107.905 338.237 103.659 341.36 100.077 344.709C96.4954 348.059 93.1307 351.841 88.7173 353.916C84.3038 355.991 78.3803 355.811 75.3229 351.959C74.9964 351.548 74.6685 351.075 74.1663 350.941C73.6642 350.807 73.0192 351.317 73.2532 351.79C73.8594 353.013 72.5575 354.561 71.2156 354.475C69.8737 354.39 68.8246 353.144 68.4943 351.815C68.164 350.486 66.3712 352.86 63.7728 353.255C61.1744 353.65 58.4177 351.95 57.5547 349.42C56.8433 347.335 54.0545 347.298 51.9235 346.908C47.078 346.02 43.3985 340.843 44.08 335.872C30.1545 340.607 16.4816 346.115 3.14151 352.361C2.35894 352.728 2.26942 353.913 2.74833 354.642Z" fill="white"/>
<path d="M198.247 150.102C202.336 150.102 205.651 146.722 205.651 142.552C205.651 138.383 202.336 135.003 198.247 135.003C194.159 135.003 190.844 138.383 190.844 142.552C190.844 146.722 194.159 150.102 198.247 150.102Z" fill="#FAAD14"/>
<path d="M146.857 143.884C149.022 143.884 150.777 142.095 150.777 139.887C150.777 137.68 149.022 135.891 146.857 135.891C144.692 135.891 142.938 137.68 142.938 139.887C142.938 142.095 144.692 143.884 146.857 143.884Z" fill="#FAAD14"/>
<path fill-rule="evenodd" clip-rule="evenodd" d="M233.605 172.851C234.283 176.44 236.298 179.916 238.982 182.072C243.971 186.081 255.185 190.209 261.155 192.421C261.698 192.623 258.635 194.387 254.681 198.287C243.976 208.847 220.569 227.757 197.701 218.254C195.029 217.143 192.794 215.864 190.973 214.509C189.296 213.26 204.692 215.059 219.084 212.277C233.556 209.479 247.02 202.088 243.416 196.228C240.029 190.721 230.502 181.391 229.759 175.904C228.769 168.593 233.021 169.767 233.605 172.851Z" fill="#E7EAEE"/>
<path fill-rule="evenodd" clip-rule="evenodd" d="M2.4541 352.566C2.4541 349.638 11.5102 347.268 26.9915 341.33C37.6394 337.246 58.3939 325.428 68.6053 324.878C75.4001 324.512 102.554 334.648 120.276 341.928C129.186 345.589 136.06 347.882 136.06 349.056C136.06 351.415 117.14 362.803 97.8031 370.288C88.3647 373.941 79.5095 377.213 71.3885 376.992C46.6295 376.319 2.4541 359.98 2.4541 352.566Z" fill="white"/>
<path fill-rule="evenodd" clip-rule="evenodd" d="M352.23 109.328C316.727 124.791 287.067 151.212 258.807 178.08L257.079 179.725C255.43 181.297 252.928 182.939 251.149 181.524L256.64 176.427C285.372 149.808 315.078 123.414 350.628 107.733C377.959 95.6764 377.669 98.2497 352.23 109.328ZM199.3 366.885L215.955 385.383C216.771 386.29 217.621 387.263 217.849 388.471C218.078 389.679 217.391 391.155 216.19 391.283L181.899 394.939C176.203 395.547 170.395 391.52 168.755 385.925C167.115 380.33 169.74 373.776 174.701 370.858C179.661 367.94 186.466 368.861 190.583 372.919C191.603 373.924 193.395 373.07 194.119 371.827C194.843 370.583 194.999 369.057 195.748 367.828C196.496 366.6 198.34 365.819 199.3 366.885ZM171.647 377.562C169.52 381.677 170.865 387.251 174.505 390.055C176.288 391.429 178.478 392.166 180.684 392.529C183.801 393.041 187.418 392.653 189.422 390.165C190.153 389.257 190.601 388.144 190.907 387.011C191.926 383.239 191.408 379.062 189.501 375.667C188.982 374.743 188.184 373.779 187.141 373.825C186.645 373.847 186.184 374.102 185.691 374.154C184.869 374.24 184.109 373.762 183.36 373.407C179.225 371.443 173.773 373.447 171.647 377.562ZM197.82 370.595C197.165 373.379 195.811 375.989 193.921 378.106C193.388 378.702 193.519 379.624 193.627 380.423C194.152 384.312 193.284 388.382 191.22 391.698C194.601 390.881 198.058 390.393 201.53 390.243C206.288 390.036 211.252 390.426 215.613 388.474C213.283 387.44 211.306 385.601 210.082 383.33C209.363 381.995 208.367 380.839 207.38 379.695L199.797 370.908C199.249 370.273 198.014 369.773 197.82 370.595ZM111.701 370.429C112.788 373.891 116.878 375.078 120.421 375.701L144.068 379.728C149.536 380.658 155.147 381.588 160.585 380.489C161.611 380.281 162.154 381.943 161.477 382.756C160.8 383.569 159.622 383.665 158.576 383.669C153.839 383.685 149.129 383.043 144.441 382.324L139.447 381.548C130.608 380.163 121.774 378.688 113.122 376.392C111.641 375.999 110.107 375.55 108.974 374.502C107.84 373.454 107.251 371.623 108.048 370.292C108.846 368.96 111.234 368.943 111.701 370.429ZM239.516 0.0965587C256.648 1.54398 270.863 17.2278 273.164 34.5988C274.958 48.1339 268.144 64.2561 254.967 66.7078C259.625 83.6774 262.215 101.532 259.658 118.96C257.101 136.388 248.968 153.412 235.241 164.118C231.451 169.316 234.314 177.157 239.303 181.166C244.292 185.175 250.749 186.584 256.719 188.796C281.734 198.067 299.345 223.231 303.451 250.046C307.556 276.86 299.356 304.669 284.538 327.213C274.388 342.654 260.58 356.368 243.306 362.306C219.301 370.558 193.005 362.686 169.636 352.615L168.928 352.309C160.14 348.495 151.194 344.172 144.877 336.894L144.478 336.426C137.686 328.319 124.849 332.697 115.592 337.656L134.058 345.468C135.38 346.028 136.815 346.693 137.429 348.012C138.72 350.789 135.539 353.462 132.847 354.845L122.005 360.41C104.909 369.16 87.111 377.758 68.0425 378.298C46.5666 378.907 26.2665 369.24 6.9163 359.67L5.68836 359.061C3.68393 358.051 1.65761 356.88 0.574226 354.91C-0.607645 352.762 0.0529906 349.411 2.3888 348.781C24.3265 342.865 45.0963 332.482 63.1183 318.422C61.7397 309.669 62.0646 300.641 64.0687 292.015L64.1708 291.596C64.4596 290.473 64.8967 289.329 65.8659 288.761C68.5465 287.191 70.875 291.327 71.3486 294.443L74.9353 318.033C89.2914 316.413 103.225 311.036 115.034 302.557L86.6584 279.254C81.5778 275.062 76.4341 270.531 74.0859 264.344C71.6233 257.854 73.6045 249.058 79.9685 246.547C80.4707 221.965 79.2 197.346 76.17 172.954C71.9804 197.316 75.3475 222.293 78.7192 246.786C72.9378 226.379 70.4343 205.012 71.3354 183.79L71.3889 182.612C71.5751 178.767 71.9971 174.616 74.5353 171.766C79.0157 166.735 87.8131 168.904 91.9026 174.27C95.9921 179.636 96.6765 186.836 97.2053 193.611L144.989 187.659C150.352 187.004 155.858 186.496 160.999 188.117C167.878 190.286 173.403 196.429 174.928 203.605L176.048 203.293C182.297 201.53 188.865 199.235 192.366 193.746C196.037 187.99 192.999 178.023 186.349 178.102L186.133 178.108C164.862 179.047 144.06 162.952 139.218 141.811C137.987 136.434 137.509 130.459 133.807 126.429C127.941 120.043 123.471 111.811 123.5 103.061C123.529 94.3118 129 85.2887 137.332 83.1971C145.664 81.1056 155.524 88.1939 154.805 96.9126C158.847 96.4929 162.982 97.0294 166.793 98.4679C164.62 92.494 170.252 85.9001 176.443 85.033C182.633 84.1659 188.665 87.3188 193.813 90.9301C198.961 94.5415 203.88 98.7931 209.865 100.623L210.141 99.9724C211.378 97.0276 212.517 93.8824 211.894 90.7693C211.224 87.4255 207.53 84.5338 204.539 86.0648C202.439 79.9302 199.098 74.2405 194.786 69.4567L182.802 75.2178C181.258 72.8599 180.312 70.0983 180.081 67.2729C172.168 71.8839 163.58 75.2867 154.691 77.3333L155.6 70.4124L129.035 84.4824C125.112 65.8379 135.377 45.8339 151.346 35.9116C167.316 25.9893 187.742 25.3096 205.528 31.2019C204.96 13.6826 222.385 -1.35087 239.516 0.0965587ZM370.208 303.978C354.904 307.744 340.047 313.398 326.065 320.779L325.054 321.317C317.307 325.479 309.703 330.466 304.846 337.866C308.126 337.286 311.627 338.158 314.275 340.213C315.948 341.511 317.346 343.458 317.246 345.599C317.194 346.709 316.742 347.768 316.133 348.689C313.75 352.288 308.706 353.749 304.824 351.965C300.942 350.181 298.675 345.36 299.741 341.157C283.271 346.89 269.112 359.227 260.972 374.91L260.7 375.44C260.299 376.23 259.809 377.113 258.959 377.309C257.789 377.579 256.748 376.248 256.802 375.026C256.855 373.805 257.623 372.753 258.365 371.792C267.962 359.365 279.179 347.536 293.533 341.538L294.614 341.095C298 339.726 301.544 338.381 303.731 335.46C309.035 328.375 316.67 323.512 324.423 319.396C331.362 315.712 338.54 312.496 345.895 309.776C353.275 307.047 360.821 304.82 368.383 302.662L394 295.39C387.071 300.355 378.44 301.953 370.208 303.978ZM44.08 335.872C30.1545 340.607 16.4816 346.115 3.14151 352.361C2.35894 352.728 2.26942 353.913 2.74833 354.642C3.22725 355.372 4.06313 355.754 4.85482 356.099L29.223 366.734C32.919 368.346 36.627 369.964 40.4921 371.091C51.2714 374.236 62.8868 373.469 73.6043 376.827C74.9043 377.234 76.2997 376.813 77.5941 376.388C86.9416 373.318 96.1792 369.9 105.282 366.143C114.806 362.212 124.244 357.876 132.699 351.925C133.469 351.384 134.267 350.782 134.618 349.899C134.969 349.015 134.646 347.787 133.746 347.527C128.04 345.874 122.416 343.925 116.904 341.688L116.522 341.529C114.855 340.819 113.11 339.809 112.761 338.038C107.905 338.237 103.659 341.36 100.077 344.709C96.4954 348.059 93.1307 351.841 88.7173 353.916C84.3038 355.991 78.3803 355.811 75.3229 351.959L75.1254 351.708C74.8582 351.372 74.568 351.048 74.1663 350.941C73.6642 350.807 73.0192 351.317 73.2532 351.79C73.8594 353.013 72.5575 354.561 71.2156 354.475C69.8737 354.39 68.8246 353.144 68.4943 351.815C68.282 350.961 68.3007 350.078 68.4022 349.197L68.4277 348.98C67.8311 351.135 65.9609 352.922 63.7728 353.255C61.1744 353.65 58.4177 351.95 57.5547 349.42C56.8433 347.335 54.0545 347.298 51.9235 346.908C47.078 346.02 43.3985 340.843 44.08 335.872ZM76.989 252.891C74.1186 258.097 76.7847 264.686 80.3204 269.448C91.4075 284.381 109.978 291.548 122.649 305.108C125.832 308.515 128.607 312.29 131.347 316.079L139.958 328.004C141.54 330.196 143.129 332.395 144.976 334.36C149.791 339.483 156.132 342.789 162.403 345.867C175.128 352.11 188.218 357.847 202.034 360.828C215.849 363.808 230.529 363.91 243.821 359.05C256.263 354.501 266.983 345.776 275.312 335.312C283.443 325.097 289.411 313.255 294.195 301.032L294.543 300.136C295.231 298.354 295.907 296.488 295.765 294.578C295.614 292.558 294.558 290.721 293.326 289.131C288.628 283.071 280.777 279.643 273.258 280.591C265.857 281.523 259.08 286.76 256.369 293.836L256.243 294.174C250.351 310.461 235.679 322.709 219.198 327.056C202.716 331.403 184.789 328.288 169.745 320.163C154.701 312.038 142.426 299.175 133.273 284.539L132.773 283.731C131.12 281.024 129.617 278.177 129.035 275.055C128.394 271.621 129.045 267.759 131.478 265.295C133.084 263.667 135.371 262.713 136.539 260.735C137.708 258.757 136.336 255.263 134.18 255.97L132.742 256.434C122.833 259.578 111.337 262.016 103.365 255.474L102.599 254.85C98.8794 251.836 94.9047 248.959 90.2838 247.922C85.3442 246.814 79.4675 248.395 76.989 252.891ZM116.488 305.669C104.469 313.413 90.9053 318.651 76.8713 320.969C75.0186 321.275 74.5207 323.724 74.4915 325.638C74.3988 331.72 74.6877 337.808 75.3557 343.853C76.8758 343.124 77.4977 341.3 78.534 339.952C79.5704 338.603 81.9355 337.865 82.7366 339.371C83.2962 340.422 82.5493 341.74 81.5957 342.438C80.642 343.135 79.4692 343.513 78.6188 344.338C76.5029 346.389 77.6089 350.425 80.1867 351.823C82.7645 353.222 86.0252 352.492 88.4966 350.906C90.968 349.321 92.8774 346.996 94.973 344.922C99.4548 340.488 104.937 337.111 110.871 335.129C118.405 332.612 126.795 332.238 133.423 327.803C133.869 327.504 134.331 327.154 134.5 326.637C134.73 325.932 134.341 325.199 133.928 324.571L125.997 312.829C124.734 310.959 123.28 308.95 121.116 308.415C120.126 308.17 119.071 308.264 118.1 307.952C117.129 307.64 116.214 306.669 116.488 305.669ZM61.1207 322.726C58.0287 324.198 56.1988 327.659 55.7916 331.113C55.3844 334.568 56.1841 338.046 57.1339 341.388C57.7169 343.44 58.3635 345.485 59.3278 347.381C59.9426 348.59 60.7568 349.796 61.9889 350.322C63.2211 350.847 64.931 350.375 65.3315 349.076C65.4965 348.54 65.4225 347.962 65.3271 347.409C64.9682 345.333 64.3244 343.308 63.4209 341.411L63.0415 340.643C62.4979 339.534 61.9861 338.226 62.6849 337.258C63.3522 336.334 64.9923 335.952 64.8355 334.815L63.3042 323.716C63.2595 323.392 63.2069 323.049 63.0004 322.798C62.5653 322.27 61.7332 322.434 61.1207 322.726ZM306.259 339.845C305.238 339.841 304.164 339.984 303.344 340.605C302.865 340.968 302.502 341.476 302.247 342.027C301.17 344.356 302.164 347.351 304.205 348.867C306.247 350.384 309.075 350.526 311.439 349.617C313.246 348.922 314.985 347.349 314.924 345.38C314.877 343.826 313.721 342.53 312.445 341.679C310.623 340.463 308.436 339.855 306.259 339.845ZM66.9221 291.272C66.6608 291.47 66.5315 291.798 66.4211 292.11C64.8133 296.659 64.6164 301.59 64.6608 306.425C64.772 318.548 66.2994 330.657 69.2005 342.414L69.3446 342.986C69.9377 345.281 70.7483 347.636 72.5848 349.056C72.9264 330.425 71.7409 311.764 69.0446 293.334C68.8696 292.137 67.874 290.551 66.9221 291.272ZM52.4429 331.319C52.059 331.429 51.8126 331.802 51.621 332.159C50.0531 335.076 49.9472 338.762 51.345 341.768C51.9718 343.115 53.0464 344.425 54.5001 344.591C55.0927 343.838 54.8218 342.754 54.4898 341.833L54.2031 341.052C53.136 338.103 52.2602 334.911 53.2008 331.947C53.3235 331.56 52.8267 331.21 52.4429 331.319ZM47.2123 335.36C46.1127 337.853 46.6026 340.99 48.4072 343.011C49.152 342.234 48.8244 340.962 48.57 339.907C48.1719 338.257 48.082 336.529 48.3066 334.845C48.0292 334.43 47.4143 334.903 47.2123 335.36ZM70.388 246.52C72.0546 247.984 73.1144 251.143 71.135 252.122C69.8668 252.749 68.4298 251.832 67.2323 251.074C61.0097 247.137 53.0534 246.847 45.9987 248.85C38.9441 250.853 32.6371 254.933 26.7177 259.329C20.823 263.707 15.1392 268.511 10.7067 274.415C6.27428 280.32 3.13911 287.436 2.88184 294.867C2.57355 303.772 6.34645 312.285 10.7092 320.006C13.4898 324.926 16.6253 329.778 20.9418 333.35L21.8291 334.066C23.0536 335.068 24.3108 336.311 23.9985 337.819C19.7677 337.624 16.6969 333.764 14.367 330.158C11.0538 325.03 8.03372 319.705 5.32711 314.219C3.07655 309.658 1.01942 304.905 0.335686 299.847C-0.950226 290.334 2.83756 280.661 8.72498 273.165C14.6124 265.67 22.4476 260.045 30.3724 254.856C36.3919 250.915 42.587 247.134 49.3442 244.74C56.3129 242.271 64.7982 241.611 70.388 246.52ZM249.224 204.62C239.203 214.157 225.883 220.016 212.203 220.904C206.157 221.296 199.914 220.707 194.443 218.053C188.973 215.399 184.364 210.45 183.093 204.41L182.639 204.553C178.679 205.83 174.145 208.142 174.185 212.303C174.355 229.951 173.952 247.604 172.978 265.224C172.791 268.605 171.528 273.044 168.209 272.945C156.414 272.591 144.543 275.368 134.079 280.928C145.857 299.763 162.607 316.23 183.442 323.128C204.278 330.027 229.407 325.716 244.007 309.063C248.688 303.725 252.132 297.414 255.449 291.092L256.213 289.633C256.918 288.285 257.636 286.682 257.009 285.294C256.609 284.408 257.472 283.487 258.264 282.94C269.915 274.899 287.263 277.081 296.649 287.767C295.905 286.284 296.581 284.24 298.054 283.518C299.224 285.437 299.472 287.911 298.706 290.031C299.213 290.763 300.144 289.586 300.224 288.693C301.476 274.802 301.377 260.784 299.931 246.913C299.41 241.911 298.701 236.878 296.946 232.177C295.407 228.054 293.094 224.276 290.56 220.701C284.729 212.477 277.64 205.182 269.628 199.161L269.046 198.729C267.776 197.802 266.439 196.947 264.938 196.531C258.997 194.881 253.725 200.336 249.224 204.62ZM168.274 196.629C161.65 198.902 154.477 198.465 147.504 198.956C137.678 199.648 127.985 202.254 119.101 206.591C115.275 208.459 111.573 210.654 107.527 211.954C98.9334 214.713 89.0823 213.009 81.8618 207.514C80.3052 219.631 80.7644 232.015 83.2137 243.978C83.371 244.746 83.8672 245.729 84.6031 245.499C89.4865 243.969 94.7388 246.133 99.0808 248.877C103.423 251.622 107.503 255.044 112.435 256.402C118.221 257.996 124.352 256.523 130.078 254.672L130.507 254.532C133.442 253.571 137.239 252.77 139.121 255.26C140.709 257.36 139.706 260.496 138.026 262.519C136.345 264.542 134.065 266.046 132.694 268.299C131.01 271.065 131.002 274.802 132.672 277.576C143.609 273.103 155.315 270.594 167.092 270.198C169.453 270.119 170.282 267.002 170.427 264.597C171.699 243.523 172.089 222.393 171.597 201.285C171.544 199.035 170.366 195.911 168.274 196.629ZM345.341 253.616L345.81 253.855C348.71 255.358 351.796 257.361 352.228 260.599C352.371 261.666 352.192 262.75 351.943 263.796C351.599 265.244 351.075 266.73 349.971 267.706C348.8 268.741 347.155 269.035 345.607 268.973C342.559 268.852 339.508 267.404 337.742 264.867C335.976 262.331 335.692 258.702 337.34 256.084C338.987 253.466 342.608 252.235 345.341 253.616ZM340.82 257.239C339.013 258.008 338.362 260.499 339.116 262.342C339.871 264.184 341.662 265.397 343.522 266.018C345.425 266.654 347.877 266.602 349.011 264.919C349.389 264.359 349.567 263.684 349.671 263.012C349.899 261.55 349.761 259.932 348.837 258.79C347.693 257.376 345.742 257.092 343.918 256.987L343.465 256.964C342.572 256.923 341.645 256.888 340.82 257.239ZM112.702 219.148C112.931 220.032 112.755 220.966 112.599 221.867C111.499 228.211 111.419 234.737 112.362 241.108L112.536 242.235C112.651 243.033 112.698 243.874 112.249 244.516C111.73 245.257 110.277 245.182 110.205 244.275C109.586 236.557 109.19 228.82 109.016 221.078C108.983 219.599 109.361 217.633 110.808 217.519C111.702 217.449 112.473 218.264 112.702 219.148ZM61.8014 203.681C62.8711 204.009 63.8986 204.756 64.2086 205.85C64.5186 206.945 63.813 208.328 62.6982 208.399C61.6592 208.466 60.8662 207.501 59.9116 207.078C58.1977 206.317 56.2748 207.379 54.6991 208.404L53.8971 208.932C52.3843 209.948 50.919 211.088 50.0883 212.707C49.2385 214.364 49.1674 216.312 49.1936 218.182C49.2119 219.481 49.2716 220.8 49.6657 222.036C50.5207 224.718 52.9605 226.727 55.6667 227.309C58.3729 227.89 61.2672 227.137 63.5564 225.554L64.0046 225.244C64.4088 224.972 64.8326 224.736 65.3081 224.712C65.9619 224.68 66.6776 225.309 66.4553 225.936C66.3887 226.125 66.2518 226.277 66.1149 226.421C62.3731 230.34 55.9117 231.179 51.3259 228.341C50.5078 227.835 49.7452 227.224 49.127 226.479C47.2687 224.24 46.922 221.102 46.8709 218.17C46.8432 216.583 46.8817 214.972 47.324 213.45C48.2798 210.162 50.9808 207.72 53.7881 205.831C56.1717 204.228 59.0668 202.842 61.8014 203.681ZM40.1524 196.935L49.481 208.231C48.9679 208.797 48.0684 208.834 47.3751 208.527C46.7588 208.254 46.2672 207.765 45.804 207.263L40.3307 201.261C39.5844 207.353 37.7767 213.309 35.0173 218.765C34.7487 219.297 35.5096 219.745 36.0926 219.806C37.5162 219.955 38.9558 219.789 40.3597 219.506L41.0831 219.357C42.2168 219.127 43.3794 218.947 44.4362 219.374C45.7195 219.892 46.5114 221.797 45.4823 222.735C44.848 223.313 43.887 223.241 43.0426 223.135L33.9574 221.989L33.6782 221.948C32.7813 221.798 31.7955 221.44 31.6641 220.559C31.5848 220.027 31.8742 219.52 32.1451 219.059C35.3789 213.555 37.5332 207.396 38.4478 201.049L38.5856 200.042C38.7634 198.807 39.078 197.466 40.1524 196.935ZM357.979 214.683C359.105 215.495 360.167 217.09 359.295 218.179C358.749 218.861 357.697 218.877 356.913 218.511C356.128 218.144 355.518 217.486 354.841 216.941C352.066 214.703 347.896 214.467 344.895 216.378C344.468 216.65 344.043 216.988 343.869 217.47C343.696 217.953 343.887 218.601 344.37 218.746C348.202 217.091 352.769 217.322 356.421 219.357C356.949 219.651 357.503 220.042 357.633 220.641C357.763 221.24 357.132 221.958 356.607 221.658C354.225 220.298 351.381 219.798 348.689 220.265C347.434 220.482 346.206 220.903 344.934 220.944C343.661 220.986 342.269 220.553 341.594 219.452C340.971 218.437 341.119 217.067 341.727 216.042C342.334 215.017 343.331 214.29 344.373 213.737C348.614 211.487 354.076 211.866 357.979 214.683ZM230.883 159.764C221.787 167.561 211.098 173.416 199.702 176.849L198.942 177.075C197.462 177.505 195.6 178.46 195.911 179.997L196.103 180.95C196.672 183.817 197.154 186.736 196.748 189.621C196.311 192.732 194.629 195.845 191.846 197.153L191.59 197.266C186.634 199.346 185.938 206.895 189.188 211.24C192.437 215.586 198.073 217.268 203.397 217.896C219.022 219.739 235.327 214.397 246.975 203.619C251.2 199.71 254.98 195.031 260.211 192.709L247.13 187.826C243.601 186.509 240.027 185.168 236.955 182.961C233.884 180.754 231.322 177.54 230.694 173.762C229.925 169.135 232.101 164.291 230.883 159.764ZM79.996 172.275C79.6677 172.424 79.3325 172.622 79.1746 172.951C79.0165 173.28 79.0699 173.669 79.1257 174.032L82.1227 193.295C83.0058 198.972 84.2466 205.263 88.8381 208.597C93.8677 212.249 100.775 210.818 106.631 208.733L106.944 208.621C117.847 204.672 128.339 199.176 139.765 197.327C147.969 195.999 156.572 196.567 164.33 193.539C161.493 189.172 155.345 189.195 150.203 189.768L108.191 194.636C104.936 195.014 101.518 195.454 98.8747 197.427C97.7182 198.29 96.6232 199.476 95.1912 199.536C93.7978 199.595 92.5867 197.526 93.6788 196.765L93.7752 196.704C94.9726 196.032 94.892 194.279 94.647 192.908L93.3763 185.804C92.7338 182.28 91.9493 178.694 89.8817 175.817C87.6487 172.71 83.4482 170.711 79.996 172.275ZM370.029 201.067C371.042 202.27 371.085 204.116 370.41 205.544C369.735 206.972 368.456 208.022 367.073 208.746C365.404 209.619 363.567 210.074 361.724 210.463L360.804 210.654C360.443 210.727 360.063 210.8 359.714 210.682C359.423 210.583 359.188 210.362 358.998 210.118C358.048 208.903 358.082 207.11 358.724 205.702C359.366 204.293 360.517 203.198 361.699 202.218C362.907 201.216 364.222 200.272 365.737 199.905C367.252 199.539 369.015 199.862 370.029 201.067ZM365.062 203.181L364.577 203.513C363.852 204.02 363.153 204.573 362.666 205.312C362.07 206.214 361.863 207.474 362.451 208.382L366.348 206.171C366.982 205.811 367.64 205.43 368.052 204.82C368.464 204.21 368.546 203.3 368.037 202.771C367.273 201.978 365.97 202.566 365.062 203.181ZM302.902 159.694C303.174 159.807 303.357 160.058 303.516 160.314L309.225 169.823C310.245 171.522 312.567 171.711 314.516 171.571C318.251 171.303 321.951 170.526 325.486 169.266C326.079 169.055 326.641 169.824 326.513 170.451C326.386 171.078 325.857 171.525 325.361 171.919L316.787 178.734C315.734 178.658 316.033 176.9 316.887 176.268L317.14 176.088C317.963 175.522 318.961 174.962 318.909 173.99L313.954 175.569C313.008 175.87 311.956 176.166 311.056 175.743C310.458 175.461 310.039 174.909 309.66 174.352L303.365 164.983L303.256 173.188C303.247 173.86 303.219 174.59 302.8 175.11C302.503 175.479 302.058 175.678 301.614 175.844L292.928 179.023C295.247 181.388 299.589 178.899 302.365 180.682C304.267 181.903 304.592 184.624 304.181 186.877C303.771 189.13 302.831 191.322 302.953 193.611C304.538 192.438 305.702 190.687 306.183 188.751C306.377 187.971 306.473 187.141 306.898 186.463C308.072 184.595 310.875 184.975 312.818 185.974C314.76 186.973 316.776 188.412 318.901 187.937L315.818 182.91C315.536 182.451 315.245 181.954 315.27 181.414C315.295 180.873 315.798 180.327 316.306 180.484C316.528 180.553 316.694 180.732 316.841 180.92L323.72 190.013C321.304 191.637 318.116 190.614 315.327 189.83L314.913 189.72C312.192 189.033 308.87 188.965 307.367 191.316C306.308 192.974 305.065 194.509 303.67 195.883C303.082 196.462 302.411 197.039 301.599 197.134C300.787 197.229 299.854 196.601 299.926 195.771L300.726 186.576C300.778 185.981 300.817 185.333 300.492 184.836C300.149 184.312 299.503 184.109 298.908 183.941L291.393 181.825C289.759 181.365 289.747 178.771 290.973 177.577C292.198 176.383 294.004 176.133 295.637 175.671C297.27 175.209 299.037 174.229 299.331 172.527L301.239 161.511C301.402 160.569 302.032 159.335 302.902 159.694ZM100.708 4.38735L99.32 5.53739C90.0726 13.2217 80.96 21.2776 74.1779 31.2666C67.0566 41.755 62.6848 54.761 64.8049 67.3332C67.8944 85.6543 83.9656 100.245 84.6527 118.821C84.744 121.289 87.2083 122.825 89.27 124.12C97.4064 129.233 103.436 137.348 107.414 146.209C111.269 154.794 113.326 164.095 114.823 173.417L114.966 174.319C115.188 175.741 115.351 177.359 114.452 178.468C113.553 179.578 111.24 179.19 111.33 177.753C112.385 160.862 106.365 143.631 95.075 131.226C92.142 128.003 88.735 125.016 84.6047 123.754C84.3416 130.26 82.1935 136.889 77.646 141.46C73.0986 146.032 65.9248 148.12 60.0378 145.597C54.1508 143.075 50.5493 135.458 53.1988 129.534C55.4183 124.571 60.9303 122.064 66.1783 121.007C71.3276 119.97 76.6655 119.916 81.8339 120.849C82.5294 120.974 82.8324 119.983 82.8184 119.263C82.4447 99.9536 64.9406 84.8362 62.6429 65.6659C61.3872 55.1892 64.8928 44.643 69.9802 35.4512C76.6612 23.3803 86.1655 12.9469 97.4792 5.264L97.7754 5.06804C98.6816 4.48637 99.738 3.99026 100.708 4.38735ZM158.342 102.733C155.809 104.395 155.874 108.081 155.664 111.145C155.377 115.347 153.96 119.553 151.197 122.685C148.433 125.816 144.235 127.739 140.136 127.214C139.076 127.078 138.753 128.642 138.892 129.723C141.275 148.242 152.293 166.424 169.417 173.056C179.886 177.11 191.711 176.571 202.385 173.116C212.804 169.742 222.235 163.743 230.853 156.876L231.482 156.372C232.732 155.365 233.989 154.316 234.857 152.955C235.738 151.575 236.172 149.942 236.383 148.309C237.514 139.562 231.781 130.408 223.522 127.776C222.55 127.466 222.775 125.858 223.628 125.29C224.481 124.723 225.579 124.761 226.553 124.458C229.191 123.636 230.405 120.572 231.007 117.826C231.834 114.054 232.067 109.753 229.774 106.674C226.676 102.514 220.652 102.52 215.544 102.918L207.256 103.565C204.395 103.789 200.713 104.817 200.579 107.739C200.29 114.033 197.571 120.302 192.767 124.265C187.964 128.228 181.046 129.598 175.343 127.172C169.731 124.785 165.766 118.555 166.415 112.405L166.45 112.107C166.787 109.505 166.601 106.68 165.107 104.544C163.612 102.407 160.506 101.313 158.342 102.733ZM226.798 4.38341C223.102 5.45474 219.552 7.18269 216.634 9.73193C212.557 13.2946 209.846 18.4428 209.186 23.8766C208.953 25.802 209.328 28.2851 211.162 28.8024C215.642 30.0659 219.65 32.996 222.262 36.9163C218.026 34.3467 213.384 32.4769 208.57 31.402L228.918 43.1424C230.097 43.823 231.322 44.5457 232.064 45.7022C232.805 46.8588 232.883 48.5848 231.864 49.4958L230.441 48.367C226.877 45.5536 223.232 42.8264 219.242 40.6972C216.208 39.0783 213.006 37.8222 209.787 36.6256L208.03 35.977C202.069 33.7844 196.055 31.5779 189.778 30.7019C183.951 29.8887 177.969 30.2498 172.277 31.758L171.154 32.0514C163.465 34.0354 155.448 35.6577 149.091 40.4515C145.31 43.303 142.348 47.1205 139.537 50.9648L138.873 51.8823C133.287 59.7034 128.182 69.3461 131.451 78.3195C146.457 76.4346 158.148 64.5953 171.742 57.8464C172.781 57.3306 174.494 57.1728 174.652 58.3401L159.441 67.5061C159.863 69.8731 159.464 72.3838 158.33 74.4935C169.444 71.2912 179.834 65.5089 188.491 57.7147L189.042 57.2145C190.415 55.9539 193.061 54.9109 193.646 56.698L192.902 57.1219C190.172 58.6878 187.456 60.4004 185.574 62.9359C183.521 65.7019 182.704 69.7229 184.524 72.6538L203.727 61.1244C204.507 60.656 205.358 60.1709 206.258 60.2673C207.158 60.3637 208.002 61.3524 207.613 62.1859L206.96 62.3247C204.888 62.7737 202.786 63.3363 201.172 64.7131C199.388 66.2348 198.464 69.0875 199.79 71.0362C202.167 74.5315 204.097 78.3435 205.514 82.3446C205.544 80.595 207.883 79.7002 209.425 80.4683C210.967 81.2365 211.783 82.9703 212.341 84.6249C213.939 89.3579 214.362 94.4986 213.558 99.4368C218.387 101.175 224.051 99.1217 228.696 101.321C233.007 103.362 235.116 108.657 234.816 113.495C234.517 118.332 232.275 122.805 229.881 126.993C236.572 132.278 240.146 141.382 238.88 149.915C240.047 149.721 241.032 148.694 241.198 147.501L243.851 149.208C239.701 151.6 236.748 156.039 236.104 160.856C254.338 143.457 260.391 115.881 257.76 90.5591L257.658 89.6147C256.615 80.4706 254.134 70.9389 247.39 64.8819C251.006 62.7562 255.643 63.5923 259.512 61.9961C263.168 60.488 265.68 56.9922 267.377 53.3625C273.049 41.228 271.096 25.7887 262.588 15.5199C254.081 5.25099 239.479 0.70748 226.798 4.38341ZM167.189 156.565C167.764 156.662 168.417 156.86 168.642 157.409C169.002 158.284 167.994 159.084 167.122 159.416C165.855 159.897 164.526 160.205 163.18 160.329C162.05 160.433 160.625 160.211 160.276 159.111C160.046 158.388 160.445 157.575 161.049 157.129C161.653 156.683 162.416 156.532 163.158 156.45C164.498 156.302 165.859 156.341 167.189 156.565ZM146.562 144.017C150.531 148.772 156.739 151.29 162.862 151.339C168.985 151.389 174.992 149.131 180.076 145.65L180.503 145.358C181.149 144.92 181.819 144.509 182.576 144.375C183.502 144.211 184.602 144.607 184.917 145.509C179.6 150.114 172.935 153.155 165.987 153.798C159.04 154.441 151.844 152.623 146.175 148.478C145.152 147.73 144.095 146.746 144.053 145.463C144.011 144.18 145.747 143.039 146.562 144.017ZM63.3869 123.875C60.6276 124.772 57.8506 126.088 56.1098 128.448C53.5238 131.954 53.976 137.274 56.769 140.611C59.562 143.948 64.2849 145.281 68.4985 144.394C72.7121 143.507 76.3703 140.608 78.7381 136.945C81.1059 133.282 82.2652 128.909 82.6164 124.537C82.6753 123.804 82.5447 122.833 81.8356 122.699C75.7163 121.538 69.3168 121.946 63.3869 123.875ZM161.164 106.789C161.279 107.798 160.896 108.787 160.545 109.737C158.558 115.104 157.348 120.77 156.967 126.494C156.906 127.421 156.871 128.382 157.204 129.247C157.519 130.064 158.25 130.775 159.097 130.823L159.248 130.825C160.019 130.797 160.385 131.97 159.9 132.582C159.415 133.194 158.504 133.263 157.764 133.038C156.245 132.577 155.156 131.135 154.716 129.583C154.275 128.03 154.388 126.373 154.608 124.773C155.357 119.346 157.299 114.086 157.395 108.607C157.421 107.061 157.731 104.977 159.243 104.854C160.235 104.773 161.049 105.781 161.164 106.789ZM180.046 88.4769C176.891 89.1389 174.481 91.7787 172.845 94.6085C169.492 100.406 168.537 107.594 170.256 114.092C171.027 117.01 172.347 119.83 174.417 121.993C176.486 124.155 179.362 125.607 182.325 125.557C184.394 125.522 186.401 124.774 188.198 123.728C194.198 120.238 198.009 113.164 197.682 106.128C197.354 99.0921 192.901 92.4184 186.604 89.5237C184.553 88.5811 182.25 88.0146 180.046 88.4769ZM136.493 85.5923C130.855 87.7223 127.215 93.6931 126.439 99.7732C125.663 105.853 127.336 112.004 129.719 117.632C130.361 119.148 131.091 120.69 132.324 121.76C133.557 122.831 135.423 123.311 136.824 122.482C137.476 122.097 138.085 122.999 138.58 123.579C139.565 124.734 141.3 124.833 142.772 124.532C147.625 123.544 151.353 119.22 152.863 114.415C154.322 109.771 154.01 104.743 153.148 99.9367L153.057 99.4404C152.148 94.5931 150.094 89.1456 145.465 87.7022C143.039 86.9454 140.111 87.3876 138.236 85.6449C137.783 85.2242 137.067 85.3753 136.493 85.5923ZM226.097 106.145C228.004 108.299 227.223 111.646 226.269 114.411L226.192 114.633C225.81 115.718 225.414 116.828 224.685 117.707C223.955 118.586 222.808 119.2 221.702 118.965C220.596 118.731 219.734 117.423 220.199 116.373C220.776 115.069 222.736 115.003 223.443 113.768L221.532 113.584C220.245 113.461 218.859 113.294 217.905 112.404C216.952 111.513 216.832 109.629 217.991 109.046C218.795 108.641 219.763 109.038 220.507 109.547C221.25 110.057 221.962 110.702 222.848 110.841C223.734 110.98 224.811 110.271 224.628 109.376C224.374 108.131 225.001 106.752 226.097 106.145ZM182.473 114.557C182.624 115.413 182.679 116.322 182.365 117.131C182.05 117.94 181.284 118.618 180.431 118.581C179.11 118.525 178.403 116.974 178.172 115.647C177.887 114.007 178.332 111.75 179.961 111.627C181.356 111.523 182.225 113.154 182.473 114.557ZM141.775 111.075C142.433 112.053 142.34 113.359 142.079 114.515C141.744 115.993 140.904 117.643 139.423 117.797C138.087 117.936 136.946 116.717 136.508 115.421C135.975 113.84 136.234 111.909 137.444 110.781C138.655 109.653 140.848 109.697 141.775 111.075ZM143.008 94.3898C143.598 94.6667 144.015 95.4258 143.716 96.0145L143.144 96.1674C139.891 97.0525 136.424 98.2843 134.87 101.283C134.498 102.002 134.256 102.795 133.793 103.456C133.329 104.117 132.547 104.643 131.767 104.476C130.878 104.285 130.364 103.241 130.459 102.32C130.554 101.399 131.103 100.596 131.692 99.8904C134.087 97.0216 137.461 95.0202 141.091 94.3162C141.729 94.1924 142.417 94.113 143.008 94.3898ZM184.581 96.0462C185.554 96.8454 186.293 97.9105 187.276 98.6966C188.106 99.3607 189.156 99.8859 189.533 100.891C189.91 101.896 188.775 103.315 187.952 102.642C185.801 100.885 183.414 99.4298 180.879 98.3295C179.729 97.8307 179.99 95.8586 181.111 95.297C182.233 94.7355 183.608 95.247 184.581 96.0462ZM172.533 89.7434C170.414 90.4558 168.908 92.7301 169.052 95.0009C169.862 94.5778 170.48 93.7874 170.703 92.8873L170.671 92.7963C171.612 92.0383 172.283 90.939 172.533 89.7434Z" fill="#612500"/>
<path fill-rule="evenodd" clip-rule="evenodd" d="M53.1066 361.902C53.9593 361.91 54.7435 362.313 55.4885 362.756L55.8911 363C60.4574 365.787 65.2758 368.145 70.2652 370.034C70.9508 370.294 70.7379 371.467 70.0695 371.77C69.4012 372.073 68.6299 371.803 67.9483 371.533L53.2134 365.687C52.2705 365.312 51.176 364.742 51.0933 363.714C51.0109 362.69 52.0989 361.893 53.1066 361.902Z" fill="#E7EAEE"/>
<path fill-rule="evenodd" clip-rule="evenodd" d="M29.6159 345.532L75.1987 362.02L75.4851 362.129C76.6899 362.609 77.9928 363.43 77.8641 364.7C77.7592 365.733 76.6374 366.399 75.6189 366.365C74.7571 366.335 73.961 365.945 73.1995 365.515L72.7873 365.278C66.4316 361.602 59.7634 358.57 52.9244 355.95C45.1774 352.982 37.2115 350.544 29.2327 348.299C28.0125 347.956 26.4663 346.844 27.166 345.768C27.6567 345.014 28.7793 345.23 29.6159 345.532Z" fill="#E7EAEE"/>
</svg>
